M48
;DRILL file {KiCad 4.0.1-stable} date 10/03/2016 22:19:43
;FORMAT={-:-/ absolute / inch / decimal}
FMAT,2
INCH,TZ
T1C0.024
T2C0.035
T3C0.043
T4C0.130
%
G90
G05
M72
T1
X6.6339Y-5.1575
X6.6614Y-5.0866
X6.6614Y-5.2283
X6.7323Y-5.0591
X6.7323Y-5.2559
X6.8031Y-5.0866
X6.8031Y-5.2283
X6.8307Y-5.1575
X8.602Y-4.0945
X8.6295Y-4.0236
X8.6295Y-4.1654
X8.7004Y-3.9961
X8.7004Y-4.1929
X8.7713Y-4.0236
X8.7713Y-4.1654
X8.7988Y-4.0945
T2
X6.8Y-4.1116
X6.9732Y-4.1116
T3
X8.5945Y-4.628
X8.5945Y-4.9823
X8.5945Y-5.0669
X8.5945Y-5.2638
T4
X6.7323Y-5.1575
X8.7004Y-4.0945
T0
M30
