M48
;DRILL file {KiCad 4.0.1-stable} date 10/03/2016 22:19:43
;FORMAT={-:-/ absolute / inch / decimal}
FMAT,2
INCH,TZ
T1C0.012
T2C0.016
T3C0.025
T4C0.028
T5C0.039
%
G90
G05
M72
T1
X7.7213Y-5.2606
T2
X6.6142Y-3.9764
X6.6142Y-4.0945
X6.6142Y-4.2126
X6.6142Y-4.3307
X6.6142Y-4.9606
X6.6811Y-4.3858
X6.6811Y-4.874
X6.6976Y-4.3177
X6.7276Y-4.9165
X6.8228Y-4.2717
X6.8268Y-4.4843
X6.8465Y-5.0315
X6.8898Y-4.8425
X6.8898Y-4.9213
X6.9173Y-5.0669
X6.9264Y-4.352
X6.9685Y-4.7638
X6.9724Y-4.3508
X7.0012Y-4.4461
X7.0476Y-4.3256
X7.0512Y-4.4528
X7.0866Y-4.7638
X7.1457Y-4.7913
X7.1469Y-4.6563
X7.1618Y-4.8299
X7.1654Y-4.0354
X7.1654Y-4.1339
X7.1654Y-4.2323
X7.1654Y-4.3307
X7.1654Y-4.4291
X7.1654Y-4.5276
X7.1854Y-4.6795
X7.2047Y-4.8504
X7.2638Y-4.0354
X7.2638Y-4.5276
X7.2756Y-4.8819
X7.2835Y-5.1181
X7.2996Y-4.9449
X7.3051Y-4.7854
X7.311Y-4.626
X7.3154Y-4.8244
X7.3181Y-4.8709
X7.3622Y-4.0354
X7.3622Y-4.5276
X7.3976Y-5.0669
X7.4016Y-5.1181
X7.4016Y-5.2362
X7.4055Y-4.626
X7.4083Y-4.7854
X7.4094Y-4.8252
X7.4102Y-4.7374
X7.4114Y-4.8709
X7.4331Y-4.6661
X7.4449Y-4.7087
X7.4606Y-4.0354
X7.4606Y-4.5276
X7.4764Y-4.8976
X7.4957Y-4.5823
X7.5591Y-4.0354
X7.6252Y-5.2496
X7.6545Y-4.6831
X7.6575Y-4.0354
X7.6584Y-4.9232
X7.7362Y-4.002
X7.7362Y-4.0472
X7.7362Y-4.1654
X7.7362Y-4.2047
X7.7362Y-4.2835
X7.7362Y-4.3228
X7.7485Y-5.0239
X7.7551Y-4.6827
X7.7669Y-4.5854
X7.7949Y-4.7126
X7.8618Y-5.0591
X7.865Y-4.7516
X7.8688Y-4.8975
X7.8717Y-4.8602
X7.9Y-4.6488
X7.9134Y-4.0157
X7.9134Y-4.0945
X7.9134Y-4.1732
X7.9134Y-4.252
X7.9134Y-4.3307
X7.9134Y-4.4094
X7.939Y-5.0531
X7.9437Y-4.6591
X7.948Y-4.5508
X7.9685Y-4.876
X7.9711Y-4.5802
X7.9737Y-4.913
X8.0004Y-4.6051
X8.0197Y-5.2063
X8.0315Y-4.0157
X8.0315Y-4.0945
X8.0315Y-4.1732
X8.0315Y-4.252
X8.0315Y-4.3307
X8.0315Y-4.4094
X8.0559Y-4.6299
X8.0587Y-4.5504
X8.0878Y-4.8358
X8.1264Y-5.0299
X8.2087Y-4.002
X8.2087Y-4.0472
X8.2087Y-4.0866
X8.2087Y-4.126
X8.2087Y-4.3228
X8.2087Y-4.3622
X8.2323Y-4.8992
X8.3465Y-4.0354
X8.3465Y-4.5276
X8.3689Y-4.713
X8.3858Y-5.0787
X8.4177Y-4.6417
X8.4449Y-4.0354
X8.4449Y-4.5276
X8.5433Y-4.0354
X8.5433Y-4.1339
X8.5433Y-4.2323
X8.5433Y-4.5276
X8.5827Y-5.1339
X8.6417Y-4.3307
X8.6417Y-4.5276
X8.6614Y-4.8031
X8.6614Y-4.9213
X8.6614Y-5.0787
X8.7402Y-4.3307
X8.7402Y-4.4291
X8.7402Y-4.5276
X8.7402Y-4.626
X8.7402Y-5.2756
X8.8189Y-4.7244
X8.8189Y-4.8425
X8.8189Y-4.9606
X8.8189Y-5.0787
X8.8189Y-5.1969
T3
X7.4953Y-5.1457
X7.4953Y-5.1957
X7.5453Y-5.1457
X7.5453Y-5.1957
X7.5953Y-5.1457
X7.5953Y-5.1957
X7.6453Y-5.1457
X7.6453Y-5.1957
X7.6953Y-5.1457
X7.6953Y-5.1957
T4
X8.5118Y-4.687
X8.5118Y-4.7657
X8.5118Y-4.8445
X8.5118Y-4.9232
X8.5118Y-5.126
X8.5118Y-5.2047
T5
X6.9163Y-5.2402
X6.936Y-4.5118
X6.936Y-4.5906
X6.9951Y-5.2402
X7.0738Y-5.2402
X7.1526Y-5.2402
X7.2313Y-5.2402
X7.31Y-5.2402
T0
M30
