G04 #@! TF.FileFunction,Soldermask,Bot*
%FSLAX46Y46*%
G04 Gerber Fmt 4.6, Leading zero omitted, Abs format (unit mm)*
G04 Created by KiCad (PCBNEW 4.0.1-stable) date 10/03/2016 22:19:41*
%MOMM*%
G01*
G04 APERTURE LIST*
%ADD10C,0.100000*%
%ADD11C,1.500000*%
%ADD12C,1.100000*%
%ADD13C,1.700000*%
%ADD14R,5.080000X2.286000*%
%ADD15R,5.080000X2.413000*%
%ADD16C,1.016000*%
%ADD17C,0.900000*%
%ADD18C,6.300000*%
%ADD19C,0.600000*%
G04 APERTURE END LIST*
D10*
D11*
X216200000Y-119050000D03*
X216200000Y-121050000D03*
X216200000Y-123050000D03*
X216200000Y-125050000D03*
D12*
X218300000Y-117550000D03*
X218300000Y-126550000D03*
D13*
X176175000Y-114600000D03*
X176175000Y-116600000D03*
X175675000Y-133100000D03*
X177675000Y-133100000D03*
X179675000Y-133100000D03*
X181675000Y-133100000D03*
X183675000Y-133100000D03*
X185675000Y-133100000D03*
D14*
X169700000Y-117600000D03*
D15*
X169700000Y-113218500D03*
X169700000Y-121981500D03*
D16*
X190380000Y-131970000D03*
X190380000Y-130700000D03*
X191650000Y-131970000D03*
X191650000Y-130700000D03*
X192920000Y-131970000D03*
X192920000Y-130700000D03*
X194190000Y-131970000D03*
X194190000Y-130700000D03*
X195460000Y-131970000D03*
X195460000Y-130700000D03*
D17*
X177120000Y-104435000D03*
X172720000Y-104435000D03*
D11*
X216200000Y-130200000D03*
X216200000Y-132200000D03*
D12*
X218300000Y-128700000D03*
X218300000Y-133700000D03*
D18*
X220990000Y-104000000D03*
D19*
X220990000Y-101500000D03*
X223490000Y-104000000D03*
X220990000Y-106500000D03*
X218490000Y-104000000D03*
X219190000Y-102200000D03*
X222790000Y-102200000D03*
X219190000Y-105800000D03*
X222790000Y-105800000D03*
D18*
X171000000Y-131000000D03*
D19*
X171000000Y-128500000D03*
X173500000Y-131000000D03*
X171000000Y-133500000D03*
X168500000Y-131000000D03*
X169200000Y-129200000D03*
X172800000Y-129200000D03*
X169200000Y-132800000D03*
X172800000Y-132800000D03*
M02*
