G04 #@! TF.FileFunction,Copper,L1,Top,Signal*
%FSLAX46Y46*%
G04 Gerber Fmt 4.6, Leading zero omitted, Abs format (unit mm)*
G04 Created by KiCad (PCBNEW 4.0.1-stable) date 10/03/2016 22:19:40*
%MOMM*%
G01*
G04 APERTURE LIST*
%ADD10C,0.100000*%
%ADD11R,1.200000X0.300000*%
%ADD12R,0.300000X1.200000*%
%ADD13C,1.500000*%
%ADD14C,1.700000*%
%ADD15R,0.600000X1.500000*%
%ADD16R,5.080000X2.413000*%
%ADD17R,0.800000X0.800000*%
%ADD18R,0.500000X0.600000*%
%ADD19R,1.500000X0.700000*%
%ADD20R,1.500000X1.000000*%
%ADD21R,0.700000X1.500000*%
%ADD22C,1.016000*%
%ADD23R,0.500000X2.250000*%
%ADD24R,2.050000X4.000000*%
%ADD25R,2.050000X3.500000*%
%ADD26R,0.700000X0.950000*%
%ADD27R,0.950000X0.700000*%
%ADD28R,0.700000X0.800000*%
%ADD29R,0.600000X1.100000*%
%ADD30R,1.400000X0.400000*%
%ADD31R,1.700000X0.800000*%
%ADD32C,0.800000*%
%ADD33C,0.700000*%
%ADD34C,0.300000*%
%ADD35C,0.500000*%
%ADD36C,1.000000*%
%ADD37C,0.254000*%
G04 APERTURE END LIST*
D10*
D11*
X201150000Y-124700000D03*
X201150000Y-124200000D03*
X201150000Y-123700000D03*
X201150000Y-123200000D03*
X201150000Y-122700000D03*
X201150000Y-122200000D03*
X201150000Y-121700000D03*
X201150000Y-121200000D03*
X201150000Y-120700000D03*
X201150000Y-120200000D03*
X201150000Y-119700000D03*
X201150000Y-119200000D03*
D12*
X199650000Y-117700000D03*
X199150000Y-117700000D03*
X198650000Y-117700000D03*
X198150000Y-117700000D03*
X197650000Y-117700000D03*
X197150000Y-117700000D03*
X196650000Y-117700000D03*
X196150000Y-117700000D03*
X195650000Y-117700000D03*
X195150000Y-117700000D03*
X194650000Y-117700000D03*
X194150000Y-117700000D03*
D11*
X192650000Y-119200000D03*
X192650000Y-119700000D03*
X192650000Y-120200000D03*
X192650000Y-120700000D03*
X192650000Y-121200000D03*
X192650000Y-121700000D03*
X192650000Y-122200000D03*
X192650000Y-122700000D03*
X192650000Y-123200000D03*
X192650000Y-123700000D03*
X192650000Y-124200000D03*
X192650000Y-124700000D03*
D12*
X194150000Y-126200000D03*
X194650000Y-126200000D03*
X195150000Y-126200000D03*
X195650000Y-126200000D03*
X196150000Y-126200000D03*
X196650000Y-126200000D03*
X197150000Y-126200000D03*
X197650000Y-126200000D03*
X198150000Y-126200000D03*
X198650000Y-126200000D03*
X199150000Y-126200000D03*
X199650000Y-126200000D03*
D13*
X216200000Y-119050000D03*
X216200000Y-121050000D03*
X216200000Y-123050000D03*
X216200000Y-125050000D03*
D14*
X176175000Y-114600000D03*
X176175000Y-116600000D03*
X175675000Y-133100000D03*
X177675000Y-133100000D03*
X179675000Y-133100000D03*
X181675000Y-133100000D03*
X183675000Y-133100000D03*
X185675000Y-133100000D03*
D15*
X198300000Y-132350000D03*
X199550000Y-132350000D03*
X200800000Y-132350000D03*
X200800000Y-129750000D03*
X199550000Y-129750000D03*
X198300000Y-129750000D03*
X202050000Y-132350000D03*
X202050000Y-129750000D03*
D16*
X169700000Y-113218500D03*
X169700000Y-121981500D03*
D17*
X214000000Y-132000000D03*
X214000000Y-130400000D03*
X211950000Y-134150000D03*
X211950000Y-132550000D03*
X204500000Y-131300000D03*
X204500000Y-132900000D03*
X210200000Y-105000000D03*
X210200000Y-106600000D03*
X172700000Y-126500000D03*
X172700000Y-124900000D03*
X203000000Y-120900000D03*
X203000000Y-122500000D03*
X202450000Y-127250000D03*
X200850000Y-127250000D03*
X191150000Y-125950000D03*
X191150000Y-124350000D03*
X193160000Y-117360000D03*
X193160000Y-115760000D03*
X197070000Y-131920000D03*
X197070000Y-133520000D03*
D18*
X173400000Y-113100000D03*
X173400000Y-112000000D03*
D19*
X198250000Y-103800000D03*
X198250000Y-104800000D03*
X198250000Y-109800000D03*
X198250000Y-111800000D03*
X198250000Y-110800000D03*
X198250000Y-108800000D03*
X198250000Y-107800000D03*
X198250000Y-106800000D03*
X198250000Y-105800000D03*
X198250000Y-102800000D03*
D20*
X198250000Y-101650000D03*
D19*
X198250000Y-112800000D03*
X198250000Y-113800000D03*
X198250000Y-113800000D03*
X198250000Y-112800000D03*
D20*
X198250000Y-101650000D03*
D19*
X198250000Y-102800000D03*
X198250000Y-105800000D03*
X198250000Y-106800000D03*
X198250000Y-107800000D03*
X198250000Y-108800000D03*
X198250000Y-110800000D03*
X198250000Y-111800000D03*
X198250000Y-109800000D03*
X198250000Y-104800000D03*
X198250000Y-103800000D03*
D21*
X202650000Y-114200000D03*
X203650000Y-114200000D03*
X204650000Y-114200000D03*
X201650000Y-114200000D03*
X200650000Y-114200000D03*
D19*
X207050000Y-113800000D03*
X207050000Y-112800000D03*
X207050000Y-111800000D03*
X207050000Y-110800000D03*
X207050000Y-109800000D03*
X207050000Y-108800000D03*
X207050000Y-107800000D03*
X207050000Y-106800000D03*
X207050000Y-105800000D03*
X207050000Y-104800000D03*
X207050000Y-103800000D03*
X207050000Y-102800000D03*
D20*
X207050000Y-101650000D03*
D22*
X190380000Y-131970000D03*
X190380000Y-130700000D03*
X191650000Y-131970000D03*
X191650000Y-130700000D03*
X192920000Y-131970000D03*
X192920000Y-130700000D03*
X194190000Y-131970000D03*
X194190000Y-130700000D03*
X195460000Y-131970000D03*
X195460000Y-130700000D03*
D23*
X176520000Y-106760000D03*
X175720000Y-106760000D03*
X174920000Y-106760000D03*
X174120000Y-106760000D03*
X173320000Y-106760000D03*
D24*
X179845000Y-102535000D03*
D25*
X179845000Y-106785000D03*
D24*
X169995000Y-102535000D03*
D25*
X169995000Y-106785000D03*
D26*
X207925000Y-121200000D03*
X206475000Y-121200000D03*
X207925000Y-119800000D03*
X206475000Y-119800000D03*
X207925000Y-118400000D03*
X206475000Y-118400000D03*
D27*
X206510000Y-124785000D03*
X206510000Y-126235000D03*
D26*
X204655000Y-129790000D03*
X203205000Y-129790000D03*
D13*
X216200000Y-130200000D03*
X216200000Y-132200000D03*
D28*
X209500000Y-118925000D03*
X209500000Y-121675000D03*
X211000000Y-121675000D03*
X211000000Y-118925000D03*
D17*
X209750000Y-129800000D03*
X211350000Y-129800000D03*
D29*
X211500000Y-125750000D03*
X210550000Y-125750000D03*
X209600000Y-125750000D03*
X209600000Y-128350000D03*
X211500000Y-128350000D03*
D30*
X206050000Y-131050000D03*
X206050000Y-131700000D03*
X206050000Y-132350000D03*
X206050000Y-133000000D03*
X210450000Y-133000000D03*
X210450000Y-132350000D03*
X210450000Y-131700000D03*
X210450000Y-131050000D03*
D26*
X211955000Y-123730000D03*
X210505000Y-123730000D03*
D27*
X208000000Y-127345000D03*
X208000000Y-125895000D03*
D26*
X194375000Y-112500000D03*
X195825000Y-112500000D03*
X194375000Y-113900000D03*
X195825000Y-113900000D03*
D31*
X204400000Y-125010000D03*
X204400000Y-128410000D03*
D17*
X204500000Y-120900000D03*
X204500000Y-122500000D03*
X191840000Y-117390000D03*
X191840000Y-115790000D03*
D32*
X169700000Y-111400000D03*
X168000000Y-101000000D03*
X168000000Y-104000000D03*
X168000000Y-107000000D03*
X168000000Y-110000000D03*
X188000000Y-133000000D03*
X188000000Y-130000000D03*
X185000000Y-130000000D03*
X169700000Y-123800000D03*
X168000000Y-126000000D03*
X222000000Y-134000000D03*
X224000000Y-132000000D03*
X224000000Y-129000000D03*
X224000000Y-126000000D03*
X224000000Y-123000000D03*
X224000000Y-120000000D03*
X220000000Y-122000000D03*
X220000000Y-129000000D03*
X220000000Y-125000000D03*
X218000000Y-130400000D03*
X213000000Y-129000000D03*
X180000000Y-121000000D03*
X175000000Y-125000000D03*
X175000000Y-123000000D03*
X177000000Y-121000000D03*
X204000000Y-102000000D03*
X204000000Y-104000000D03*
X204000000Y-106000000D03*
X204000000Y-108000000D03*
X204000000Y-110000000D03*
X204000000Y-112000000D03*
X201000000Y-112000000D03*
X201000000Y-110000000D03*
X201000000Y-108000000D03*
X201000000Y-106000000D03*
X201000000Y-104000000D03*
X201000000Y-102000000D03*
X212000000Y-115000000D03*
X214500000Y-115000000D03*
X217000000Y-115000000D03*
X219500000Y-115000000D03*
X189500000Y-115000000D03*
X187000000Y-115000000D03*
X184500000Y-115000000D03*
X182000000Y-115000000D03*
X182000000Y-112500000D03*
X182000000Y-110000000D03*
X182000000Y-107500000D03*
X182000000Y-105000000D03*
X182000000Y-102500000D03*
X184500000Y-102500000D03*
X187000000Y-102500000D03*
X189500000Y-102500000D03*
X192000000Y-102500000D03*
X194500000Y-102500000D03*
X222000000Y-117500000D03*
X222000000Y-115000000D03*
X222000000Y-112500000D03*
X222000000Y-110000000D03*
X219500000Y-110000000D03*
X217000000Y-107500000D03*
X217000000Y-105000000D03*
X217000000Y-102500000D03*
X214500000Y-102500000D03*
X212000000Y-102500000D03*
X173300000Y-108500000D03*
X205430000Y-122830000D03*
D33*
X196120000Y-133620000D03*
D32*
X170880000Y-124880000D03*
X209100000Y-124440000D03*
X203700010Y-132240000D03*
X190390000Y-116390000D03*
X193680000Y-133340000D03*
X196500000Y-109800000D03*
X196500000Y-108800000D03*
X196500000Y-106800000D03*
X196500000Y-105800000D03*
X196500000Y-102800000D03*
X196500000Y-101650000D03*
X208500000Y-104800000D03*
X208500000Y-103800000D03*
X208500000Y-110800000D03*
X208500000Y-102800000D03*
X208500000Y-101650000D03*
X189900000Y-124400000D03*
X206410000Y-127760000D03*
X179010000Y-109870000D03*
X170120000Y-109670000D03*
X208500000Y-109800000D03*
X204690000Y-115580000D03*
X201880000Y-115590000D03*
X201650000Y-128350000D03*
X181500000Y-121700000D03*
X181530000Y-118270000D03*
X173900000Y-127800000D03*
X188100000Y-117500000D03*
X185700000Y-117500000D03*
X175700000Y-128700000D03*
X187900000Y-128700000D03*
X196812826Y-127607174D03*
X199690257Y-128500010D03*
X188170000Y-121550000D03*
X185550000Y-121550000D03*
X182510000Y-118860000D03*
X181910000Y-122680000D03*
X196980000Y-118940000D03*
X183000000Y-123200000D03*
X188800000Y-118520000D03*
X194425000Y-118950000D03*
X188220000Y-120330000D03*
X184800000Y-124000000D03*
X185410000Y-125600000D03*
X189100000Y-119600000D03*
X194523377Y-125049998D03*
X213810000Y-117900000D03*
X200660000Y-118080000D03*
X203210000Y-116970000D03*
X204620000Y-117600010D03*
X199770000Y-120690000D03*
X212570000Y-119710000D03*
X177100000Y-110510000D03*
X188200000Y-122560000D03*
X185810000Y-122540000D03*
X179100000Y-113100000D03*
X177830000Y-112930000D03*
X175930000Y-110540000D03*
X185880000Y-123720000D03*
X188250000Y-123720000D03*
X173400000Y-113900000D03*
X197280000Y-116470000D03*
X197990000Y-119699990D03*
X202466475Y-116337363D03*
X201770000Y-118340000D03*
X199939999Y-123450001D03*
X202400000Y-123850000D03*
X199867926Y-124397265D03*
X202531286Y-124790887D03*
D34*
X169700000Y-111400000D02*
X168300000Y-110000000D01*
D35*
X169700000Y-113218500D02*
X169700000Y-111400000D01*
D34*
X168000000Y-107000000D02*
X168000000Y-104000000D01*
X168300000Y-110000000D02*
X168000000Y-110000000D01*
D35*
X185675000Y-133100000D02*
X185775000Y-133000000D01*
X185775000Y-133000000D02*
X188000000Y-133000000D01*
X188000000Y-130000000D02*
X185000000Y-130000000D01*
X169700000Y-121981500D02*
X169700000Y-123800000D01*
X222000000Y-117500000D02*
X224000000Y-119500000D01*
X224000000Y-129000000D02*
X224000000Y-132000000D01*
X224000000Y-123000000D02*
X224000000Y-126000000D01*
X224000000Y-119500000D02*
X224000000Y-120000000D01*
X216200000Y-125050000D02*
X219950000Y-125050000D01*
X219950000Y-125050000D02*
X220000000Y-125000000D01*
X216200000Y-132200000D02*
X218000000Y-130400000D01*
X211350000Y-129800000D02*
X212150000Y-129000000D01*
X212150000Y-129000000D02*
X213000000Y-129000000D01*
D36*
X214000000Y-132000000D02*
X216000000Y-132000000D01*
X216000000Y-132000000D02*
X216200000Y-132200000D01*
D35*
X175000000Y-123000000D02*
X177000000Y-121000000D01*
X175000000Y-125000000D02*
X172800000Y-125000000D01*
X172700000Y-124900000D02*
X172800000Y-125000000D01*
X204000000Y-106000000D02*
X204000000Y-104000000D01*
X204000000Y-110000000D02*
X204000000Y-108000000D01*
X201000000Y-112000000D02*
X204000000Y-112000000D01*
X201000000Y-108000000D02*
X201000000Y-110000000D01*
X201000000Y-104000000D02*
X201000000Y-106000000D01*
X198250000Y-101650000D02*
X200650000Y-101650000D01*
X200650000Y-101650000D02*
X201000000Y-102000000D01*
X217000000Y-115000000D02*
X214500000Y-115000000D01*
X222000000Y-117500000D02*
X219500000Y-115000000D01*
X184500000Y-115000000D02*
X187000000Y-115000000D01*
X182000000Y-112500000D02*
X182000000Y-115000000D01*
X182000000Y-107500000D02*
X182000000Y-110000000D01*
X182000000Y-102500000D02*
X182000000Y-105000000D01*
X187000000Y-102500000D02*
X184500000Y-102500000D01*
X192000000Y-102500000D02*
X189500000Y-102500000D01*
X198250000Y-101650000D02*
X195350000Y-101650000D01*
X195350000Y-101650000D02*
X194500000Y-102500000D01*
X222000000Y-112500000D02*
X222000000Y-115000000D01*
X219500000Y-110000000D02*
X222000000Y-110000000D01*
X217000000Y-105000000D02*
X217000000Y-107500000D01*
X214500000Y-102500000D02*
X217000000Y-102500000D01*
X207050000Y-101650000D02*
X211150000Y-101650000D01*
X211150000Y-101650000D02*
X212000000Y-102500000D01*
X171681500Y-113218500D02*
X171681500Y-112968500D01*
X171681500Y-112968500D02*
X172650000Y-112000000D01*
X172650000Y-112000000D02*
X173400000Y-112000000D01*
X169700000Y-113218500D02*
X171681500Y-113218500D01*
D34*
X173320000Y-106760000D02*
X173320000Y-108480000D01*
X173320000Y-108480000D02*
X173300000Y-108500000D01*
X206050000Y-133000000D02*
X204600000Y-133000000D01*
X204600000Y-133000000D02*
X204500000Y-132900000D01*
D35*
X204500000Y-122500000D02*
X205100000Y-122500000D01*
X205100000Y-122500000D02*
X205430000Y-122830000D01*
X203000000Y-122500000D02*
X202800000Y-122500000D01*
X202800000Y-122500000D02*
X202200000Y-121900000D01*
X202200000Y-121900000D02*
X202200000Y-121350000D01*
X204500000Y-122500000D02*
X203000000Y-122500000D01*
D34*
X201150000Y-121200000D02*
X202050000Y-121200000D01*
X202050000Y-121200000D02*
X202200000Y-121350000D01*
D35*
X197070000Y-133520000D02*
X196220000Y-133520000D01*
X196220000Y-133520000D02*
X196120000Y-133620000D01*
X172700000Y-124900000D02*
X170900000Y-124900000D01*
X170900000Y-124900000D02*
X170880000Y-124880000D01*
D34*
X210550000Y-125750000D02*
X210550000Y-125309998D01*
X210550000Y-125309998D02*
X209680002Y-124440000D01*
X209680002Y-124440000D02*
X209100000Y-124440000D01*
D35*
X204500000Y-132900000D02*
X204360010Y-132900000D01*
X204360010Y-132900000D02*
X203700010Y-132240000D01*
X191840000Y-115790000D02*
X190990000Y-115790000D01*
X190990000Y-115790000D02*
X190390000Y-116390000D01*
X208500000Y-104800000D02*
X210000000Y-104800000D01*
X210000000Y-104800000D02*
X210200000Y-105000000D01*
X198250000Y-109800000D02*
X196500000Y-109800000D01*
X198250000Y-108800000D02*
X196500000Y-108800000D01*
X197000000Y-106800000D02*
X196500000Y-106800000D01*
X198250000Y-106800000D02*
X197000000Y-106800000D01*
X198250000Y-105800000D02*
X196500000Y-105800000D01*
X198250000Y-102800000D02*
X196500000Y-102800000D01*
X197000000Y-101650000D02*
X196500000Y-101650000D01*
X198250000Y-101650000D02*
X197000000Y-101650000D01*
X207050000Y-104800000D02*
X208500000Y-104800000D01*
X207050000Y-103800000D02*
X208500000Y-103800000D01*
X207050000Y-110800000D02*
X208500000Y-110800000D01*
X207050000Y-102800000D02*
X208500000Y-102800000D01*
X207050000Y-101650000D02*
X208500000Y-101650000D01*
X191150000Y-124350000D02*
X189950000Y-124350000D01*
X189950000Y-124350000D02*
X189900000Y-124400000D01*
X206510000Y-126235000D02*
X206510000Y-127660000D01*
X206510000Y-127660000D02*
X206410000Y-127760000D01*
X211350000Y-129800000D02*
X211350000Y-128500000D01*
X211350000Y-128500000D02*
X211500000Y-128350000D01*
X171500000Y-113318500D02*
X171500000Y-113225000D01*
D36*
X179845000Y-102535000D02*
X179845000Y-106785000D01*
X179845000Y-106785000D02*
X179830000Y-106800000D01*
X179830000Y-106800000D02*
X179830000Y-109050000D01*
X179830000Y-109050000D02*
X179010000Y-109870000D01*
X169995000Y-102535000D02*
X169995000Y-106785000D01*
X169995000Y-106785000D02*
X170120000Y-106910000D01*
X170120000Y-106910000D02*
X170120000Y-109670000D01*
D35*
X191840000Y-115790000D02*
X191485000Y-115790000D01*
X193160000Y-115760000D02*
X191870000Y-115760000D01*
X191870000Y-115760000D02*
X191840000Y-115790000D01*
D34*
X194650000Y-117700000D02*
X194650000Y-116625000D01*
D35*
X193785000Y-115760000D02*
X193160000Y-115760000D01*
X194650000Y-116625000D02*
X193785000Y-115760000D01*
X207050000Y-102800000D02*
X207110000Y-102800000D01*
X210200000Y-105000000D02*
X210070000Y-105050000D01*
X207050000Y-109800000D02*
X208500000Y-109800000D01*
X204650000Y-114200000D02*
X204650000Y-115540000D01*
X204650000Y-115540000D02*
X204690000Y-115580000D01*
D34*
X200650000Y-114200000D02*
X200650000Y-114860000D01*
X200650000Y-114860000D02*
X201380000Y-115590000D01*
X201380000Y-115590000D02*
X201880000Y-115590000D01*
D35*
X199550000Y-132150000D02*
X200800000Y-132150000D01*
X199550000Y-132150000D02*
X199660000Y-132150000D01*
X199660000Y-132150000D02*
X200120000Y-132610000D01*
X197070000Y-133520000D02*
X199210000Y-133520000D01*
X200340000Y-132610000D02*
X200800000Y-132150000D01*
X200120000Y-132610000D02*
X200340000Y-132610000D01*
X199210000Y-133520000D02*
X200120000Y-132610000D01*
X204500000Y-132900000D02*
X204450000Y-132900000D01*
D34*
X192650000Y-124200000D02*
X191300000Y-124200000D01*
X191300000Y-124200000D02*
X191150000Y-124350000D01*
D35*
X200850000Y-127250000D02*
X200850000Y-127550000D01*
X200850000Y-127550000D02*
X201650000Y-128350000D01*
D34*
X200850000Y-127250000D02*
X199250000Y-127250000D01*
X199150000Y-127150000D02*
X199150000Y-126200000D01*
X199250000Y-127250000D02*
X199150000Y-127150000D01*
D36*
X211700000Y-131050000D02*
X211950000Y-131050000D01*
X211950000Y-131050000D02*
X212600000Y-130400000D01*
X212600000Y-130400000D02*
X214000000Y-130400000D01*
X216200000Y-130200000D02*
X214200000Y-130200000D01*
X214200000Y-130200000D02*
X214000000Y-130400000D01*
D35*
X210450000Y-131700000D02*
X211050000Y-131700000D01*
X211050000Y-131700000D02*
X211700000Y-131050000D01*
X210450000Y-131700000D02*
X210450000Y-132350000D01*
X210450000Y-131050000D02*
X210450000Y-131700000D01*
D36*
X211700000Y-131050000D02*
X210450000Y-131050000D01*
D35*
X195800000Y-134380000D02*
X199269252Y-134380000D01*
X199269252Y-134380000D02*
X199499252Y-134150000D01*
X199499252Y-134150000D02*
X200190000Y-134150000D01*
D36*
X203550000Y-134150000D02*
X202200000Y-134150000D01*
X202200000Y-134150000D02*
X200190000Y-134150000D01*
D35*
X202900009Y-133500009D02*
X202849991Y-133500009D01*
X202849991Y-133500009D02*
X202200000Y-134150000D01*
X204500000Y-131300000D02*
X203456008Y-131300000D01*
X203456008Y-131300000D02*
X202900009Y-131855999D01*
X202900009Y-131855999D02*
X202900009Y-133500009D01*
X202900009Y-133500009D02*
X203550000Y-134150000D01*
D34*
X206050000Y-132000000D02*
X206050000Y-131700000D01*
X206050000Y-132350000D02*
X206050000Y-132000000D01*
X205200001Y-132199999D02*
X205000002Y-132000000D01*
X205000002Y-132000000D02*
X204900000Y-131899998D01*
X206050000Y-132000000D02*
X205000002Y-132000000D01*
X206050000Y-132350000D02*
X205899999Y-132199999D01*
X205899999Y-132199999D02*
X205200001Y-132199999D01*
X204900000Y-131899998D02*
X204900000Y-131700000D01*
D35*
X209400000Y-112700000D02*
X209400000Y-107200000D01*
X209400000Y-107200000D02*
X209400000Y-106800000D01*
X209000000Y-106800000D02*
X209400000Y-107200000D01*
X209400000Y-106400000D02*
X209400000Y-106800000D01*
X209400000Y-106000000D02*
X209400000Y-106400000D01*
X209400000Y-106400000D02*
X209000000Y-106800000D01*
X207050000Y-105800000D02*
X209200000Y-105800000D01*
X209200000Y-105800000D02*
X209400000Y-106000000D01*
X204500000Y-120900000D02*
X203000000Y-120900000D01*
X210684999Y-122475001D02*
X211315001Y-122475001D01*
X211315001Y-122475001D02*
X211450000Y-122610000D01*
X205909998Y-122180000D02*
X208127169Y-122180000D01*
X208127169Y-122180000D02*
X208422170Y-122475001D01*
X208422170Y-122475001D02*
X210684999Y-122475001D01*
X210684999Y-122475001D02*
X211000000Y-122160000D01*
X205370000Y-121330000D02*
X205370000Y-121640002D01*
X205370000Y-121640002D02*
X205909998Y-122180000D01*
X204500000Y-120900000D02*
X204940000Y-120900000D01*
X204940000Y-120900000D02*
X205370000Y-121330000D01*
D34*
X201150000Y-120700000D02*
X202800000Y-120700000D01*
X202800000Y-120700000D02*
X203000000Y-120900000D01*
D35*
X185700000Y-117500000D02*
X182300000Y-117500000D01*
X182300000Y-117500000D02*
X181530000Y-118270000D01*
X175700000Y-128700000D02*
X175999999Y-128400001D01*
X175999999Y-128400001D02*
X175999999Y-127200001D01*
X175999999Y-127200001D02*
X181200001Y-121999999D01*
X181200001Y-121999999D02*
X181500000Y-121700000D01*
X173900000Y-127800000D02*
X172700000Y-126600000D01*
X172700000Y-126600000D02*
X172700000Y-126500000D01*
X215175000Y-116200000D02*
X210700000Y-116200000D01*
X210700000Y-116200000D02*
X208300000Y-113800000D01*
X209000000Y-106800000D02*
X209400000Y-106800000D01*
X209400000Y-106800000D02*
X210000000Y-106800000D01*
X207050000Y-113800000D02*
X208300000Y-113800000D01*
X208300000Y-113800000D02*
X209400000Y-112700000D01*
X207050000Y-106800000D02*
X209000000Y-106800000D01*
X210000000Y-106800000D02*
X210200000Y-106600000D01*
X188210000Y-117390000D02*
X191840000Y-117390000D01*
X188100000Y-117500000D02*
X188210000Y-117390000D01*
X189200000Y-128700000D02*
X187900000Y-128700000D01*
X202450000Y-127250000D02*
X202450000Y-127740000D01*
X203120000Y-128410000D02*
X204400000Y-128410000D01*
X202450000Y-127740000D02*
X203120000Y-128410000D01*
X204400000Y-128410000D02*
X204400000Y-129535000D01*
X204400000Y-129535000D02*
X204655000Y-129790000D01*
X204500000Y-131300000D02*
X204500000Y-129945000D01*
X204500000Y-129945000D02*
X204655000Y-129790000D01*
X207450000Y-128200000D02*
X207450000Y-128470000D01*
X206130000Y-129790000D02*
X204655000Y-129790000D01*
X207450000Y-128470000D02*
X206130000Y-129790000D01*
D34*
X208000000Y-127345000D02*
X208000000Y-127650000D01*
X208000000Y-127650000D02*
X207450000Y-128200000D01*
D35*
X211000000Y-121675000D02*
X211000000Y-122160000D01*
D34*
X211000000Y-122160000D02*
X211450000Y-122610000D01*
X211955000Y-123730000D02*
X211955000Y-123085000D01*
X211955000Y-123085000D02*
X212430000Y-122610000D01*
D35*
X213340000Y-122610000D02*
X213800000Y-122150000D01*
X211450000Y-122610000D02*
X212430000Y-122610000D01*
X212430000Y-122610000D02*
X213340000Y-122610000D01*
X217875000Y-119050000D02*
X217875000Y-118900000D01*
X217875000Y-118900000D02*
X215175000Y-116200000D01*
X194725000Y-134380000D02*
X194945000Y-134380000D01*
X194945000Y-134380000D02*
X195200000Y-134125000D01*
X195800000Y-134380000D02*
X195455000Y-134380000D01*
X195455000Y-134380000D02*
X195200000Y-134125000D01*
D34*
X197070000Y-131920000D02*
X196855000Y-131920000D01*
X196855000Y-131920000D02*
X195200000Y-133575000D01*
D35*
X195200000Y-133575000D02*
X195200000Y-134125000D01*
X195200000Y-134125000D02*
X195200000Y-134380000D01*
X209750000Y-129800000D02*
X209050000Y-129800000D01*
X209050000Y-129800000D02*
X207450000Y-128200000D01*
X190675000Y-132850000D02*
X189275000Y-132850000D01*
X191150000Y-126750000D02*
X191150000Y-125950000D01*
X189200000Y-128700000D02*
X191150000Y-126750000D01*
X189200000Y-132775000D02*
X189200000Y-128700000D01*
X189275000Y-132850000D02*
X189200000Y-132775000D01*
X192600000Y-134380000D02*
X192205000Y-134380000D01*
X190380000Y-132555000D02*
X190380000Y-131970000D01*
X192205000Y-134380000D02*
X190675000Y-132850000D01*
X190675000Y-132850000D02*
X190380000Y-132555000D01*
X191840000Y-117390000D02*
X193130000Y-117390000D01*
D34*
X193130000Y-117390000D02*
X193440000Y-117700000D01*
X193440000Y-117700000D02*
X194150000Y-117700000D01*
D35*
X207050000Y-106800000D02*
X207320000Y-106800000D01*
X195800000Y-134380000D02*
X195200000Y-134380000D01*
X195200000Y-134380000D02*
X194725000Y-134380000D01*
X194725000Y-134380000D02*
X192600000Y-134380000D01*
X192600000Y-134380000D02*
X192530000Y-134380000D01*
X197070000Y-131920000D02*
X198070000Y-131920000D01*
X198070000Y-131920000D02*
X198300000Y-132150000D01*
X205300000Y-131700000D02*
X205400000Y-131700000D01*
X205400000Y-131700000D02*
X206050000Y-131050000D01*
X206050000Y-131050000D02*
X206050000Y-131700000D01*
X206050000Y-131700000D02*
X205300000Y-131700000D01*
X205300000Y-131700000D02*
X204900000Y-131700000D01*
X204900000Y-131700000D02*
X204500000Y-131300000D01*
X206050000Y-131700000D02*
X204900000Y-131700000D01*
X204900000Y-131700000D02*
X204500000Y-131300000D01*
D36*
X211950000Y-134150000D02*
X216250000Y-134150000D01*
X218000000Y-132400000D02*
X220700000Y-132400000D01*
D35*
X216550000Y-133850000D02*
X218000000Y-132400000D01*
D36*
X220700000Y-132400000D02*
X222400000Y-130700000D01*
X216250000Y-134150000D02*
X216550000Y-133850000D01*
X211950000Y-134150000D02*
X203550000Y-134150000D01*
D34*
X191150000Y-125950000D02*
X191400000Y-125950000D01*
X191400000Y-125950000D02*
X192650000Y-124700000D01*
D35*
X213800000Y-119150000D02*
X213800000Y-122150000D01*
X213800000Y-119150000D02*
X213900000Y-119050000D01*
D36*
X213900000Y-119050000D02*
X216200000Y-119050000D01*
D35*
X207450000Y-128200000D02*
X208550000Y-128200000D01*
X208550000Y-128200000D02*
X209450000Y-128200000D01*
X209450000Y-128200000D02*
X209600000Y-128350000D01*
D34*
X199650000Y-126200000D02*
X200050000Y-126200000D01*
X201550000Y-126350000D02*
X202450000Y-127250000D01*
X200200000Y-126350000D02*
X201550000Y-126350000D01*
X200050000Y-126200000D02*
X200200000Y-126350000D01*
D35*
X204325000Y-131125000D02*
X204500000Y-131300000D01*
D36*
X216200000Y-119050000D02*
X217875000Y-119050000D01*
X217875000Y-119050000D02*
X219800000Y-119050000D01*
X219800000Y-119050000D02*
X222400000Y-121650000D01*
X222400000Y-130700000D02*
X222400000Y-121650000D01*
X222400000Y-130700000D02*
X222450000Y-130650000D01*
D34*
X195650000Y-126200000D02*
X195650000Y-127750000D01*
X200800000Y-128600000D02*
X200800000Y-129950000D01*
X200000000Y-127800000D02*
X200800000Y-128600000D01*
X199300000Y-127800000D02*
X200000000Y-127800000D01*
X198750000Y-128350000D02*
X199300000Y-127800000D01*
X196565688Y-128350000D02*
X198750000Y-128350000D01*
X196015688Y-127800000D02*
X196565688Y-128350000D01*
X195700000Y-127800000D02*
X196015688Y-127800000D01*
X195650000Y-127750000D02*
X195700000Y-127800000D01*
X196812826Y-127607174D02*
X196150000Y-126944348D01*
X196150000Y-126944348D02*
X196150000Y-126200000D01*
X199550000Y-129950000D02*
X199550000Y-128640267D01*
X199550000Y-128640267D02*
X199690257Y-128500010D01*
X199550000Y-129950000D02*
X199550000Y-129150000D01*
X197910000Y-131000000D02*
X198740000Y-131000000D01*
X198740000Y-131000000D02*
X198890000Y-131000000D01*
X202050000Y-129950000D02*
X202050000Y-130090002D01*
X202050000Y-130090002D02*
X201140002Y-131000000D01*
X201140002Y-131000000D02*
X198740000Y-131000000D01*
X197940000Y-131000000D02*
X198890000Y-131000000D01*
X196560000Y-129650000D02*
X197910000Y-131000000D01*
X195700000Y-129650000D02*
X196560000Y-129650000D01*
X194650000Y-128600000D02*
X195250000Y-129200000D01*
X195250000Y-129200000D02*
X195700000Y-129650000D01*
X202050000Y-129950000D02*
X203045000Y-129950000D01*
X203045000Y-129950000D02*
X203205000Y-129790000D01*
X194650000Y-126200000D02*
X194650000Y-128600000D01*
X194650000Y-128600000D02*
X194750000Y-128700000D01*
X197650000Y-126200000D02*
X197650000Y-125350000D01*
X197650000Y-125350000D02*
X197800000Y-125200000D01*
X197800000Y-125200000D02*
X200000000Y-125200000D01*
X200000000Y-125200000D02*
X200550000Y-125750000D01*
X203950000Y-125010000D02*
X204400000Y-125010000D01*
X200550000Y-125750000D02*
X203210000Y-125750000D01*
X203210000Y-125750000D02*
X203950000Y-125010000D01*
D35*
X204400000Y-125010000D02*
X206285000Y-125010000D01*
X206285000Y-125010000D02*
X206510000Y-124785000D01*
D34*
X188170000Y-121550000D02*
X188735685Y-121550000D01*
X188735685Y-121550000D02*
X188885685Y-121700000D01*
X188885685Y-121700000D02*
X191750000Y-121700000D01*
X191750000Y-121700000D02*
X192650000Y-121700000D01*
X182510000Y-118860000D02*
X185200000Y-121550000D01*
X185200000Y-121550000D02*
X185550000Y-121550000D01*
X177675000Y-127225000D02*
X177675000Y-126915000D01*
X177675000Y-126915000D02*
X181910000Y-122680000D01*
X177675000Y-133100000D02*
X177675000Y-127225000D01*
X198690002Y-118950000D02*
X196990000Y-118950000D01*
X196990000Y-118950000D02*
X196980000Y-118940000D01*
X199150000Y-117700000D02*
X199150000Y-118490002D01*
X199150000Y-118490002D02*
X198690002Y-118950000D01*
X179675000Y-133100000D02*
X179675000Y-126525000D01*
X179675000Y-126525000D02*
X183000000Y-123200000D01*
X191390000Y-118500000D02*
X188820000Y-118500000D01*
X188820000Y-118500000D02*
X188800000Y-118520000D01*
X194425000Y-118950000D02*
X193775000Y-118950000D01*
X193775000Y-118950000D02*
X193325000Y-118500000D01*
X191390000Y-118500000D02*
X193325000Y-118500000D01*
X191390000Y-118500000D02*
X191300000Y-118500000D01*
X188220000Y-120330000D02*
X191760000Y-120330000D01*
X191760000Y-120330000D02*
X191890000Y-120200000D01*
X191890000Y-120200000D02*
X192650000Y-120200000D01*
X181675000Y-133100000D02*
X181675000Y-127125000D01*
X181675000Y-127125000D02*
X184800000Y-124000000D01*
X183675000Y-133100000D02*
X183675000Y-127480000D01*
X183675000Y-127480000D02*
X183675000Y-127325000D01*
X185410000Y-125600000D02*
X184844315Y-125600000D01*
X184844315Y-125600000D02*
X183675000Y-126769315D01*
X183675000Y-126769315D02*
X183675000Y-127480000D01*
X189200000Y-119700000D02*
X192650000Y-119700000D01*
X189100000Y-119600000D02*
X189200000Y-119700000D01*
X194523377Y-125049998D02*
X194923376Y-124649999D01*
X194923376Y-124649999D02*
X194923376Y-124326624D01*
X194923376Y-124326624D02*
X197550000Y-121700000D01*
X197550000Y-121700000D02*
X201150000Y-121700000D01*
X195650000Y-117700000D02*
X195650000Y-118760000D01*
X195650000Y-118760000D02*
X197290000Y-120400000D01*
X197290000Y-120400000D02*
X198512822Y-120400000D01*
X198512822Y-120400000D02*
X200260001Y-118652821D01*
X200260001Y-118652821D02*
X200260001Y-118479999D01*
X200260001Y-118479999D02*
X200660000Y-118080000D01*
X203990000Y-116900000D02*
X203280000Y-116900000D01*
X203280000Y-116900000D02*
X203210000Y-116970000D01*
X203990000Y-116900000D02*
X212810000Y-116900000D01*
X212810000Y-116900000D02*
X213810000Y-117900000D01*
X215920000Y-121050000D02*
X216200000Y-121050000D01*
X204980000Y-117380000D02*
X204840010Y-117380000D01*
X204840010Y-117380000D02*
X204620000Y-117600010D01*
X199025000Y-120875000D02*
X199585000Y-120875000D01*
X199585000Y-120875000D02*
X199770000Y-120690000D01*
X212060000Y-117380000D02*
X205820000Y-117380000D01*
X204980000Y-117380000D02*
X205820000Y-117380000D01*
X212340000Y-118560000D02*
X212340000Y-119480000D01*
X212340000Y-119480000D02*
X212570000Y-119710000D01*
X195150000Y-119010000D02*
X195150000Y-117700000D01*
X196350000Y-120210000D02*
X195150000Y-119010000D01*
X197015000Y-120875000D02*
X196350000Y-120210000D01*
X199025000Y-120875000D02*
X197015000Y-120875000D01*
X216200000Y-123050000D02*
X216100000Y-123050000D01*
X212340000Y-118560000D02*
X212340000Y-117660000D01*
X212340000Y-117660000D02*
X212060000Y-117380000D01*
X177100000Y-110510000D02*
X175720000Y-109130000D01*
X175720000Y-109130000D02*
X175720000Y-108620000D01*
X188200000Y-122560000D02*
X188765685Y-122560000D01*
X188765685Y-122560000D02*
X188905685Y-122700000D01*
X188905685Y-122700000D02*
X191750000Y-122700000D01*
X191750000Y-122700000D02*
X192650000Y-122700000D01*
X184030000Y-121830000D02*
X179100000Y-116900000D01*
X184600000Y-122400000D02*
X184030000Y-121830000D01*
X184030000Y-121830000D02*
X184740000Y-122540000D01*
X184740000Y-122540000D02*
X185810000Y-122540000D01*
X175720000Y-108620000D02*
X175720000Y-106760000D01*
X179100000Y-116900000D02*
X179100000Y-113100000D01*
X184140001Y-123240001D02*
X185400001Y-123240001D01*
X185400001Y-123240001D02*
X185880000Y-123720000D01*
X185880000Y-123720000D02*
X185700001Y-123540001D01*
X184140001Y-123240001D02*
X178300000Y-117400000D01*
X178300000Y-117400000D02*
X178300000Y-113400000D01*
X178300000Y-113400000D02*
X177830000Y-112930000D01*
X174920000Y-108920000D02*
X174920000Y-109530000D01*
X174920000Y-109530000D02*
X175930000Y-110540000D01*
X188250000Y-123720000D02*
X188770000Y-123200000D01*
X174920000Y-106760000D02*
X174920000Y-108920000D01*
X188770000Y-123200000D02*
X192650000Y-123200000D01*
X192150000Y-125850000D02*
X192150000Y-126030000D01*
X191540000Y-127360000D02*
X192150000Y-126750000D01*
X192150000Y-126030000D02*
X192150000Y-126550000D01*
X192150000Y-126750000D02*
X192150000Y-126030000D01*
X190380000Y-130700000D02*
X190380000Y-128520000D01*
X190380000Y-128520000D02*
X191540000Y-127360000D01*
X193400000Y-125250000D02*
X192750000Y-125250000D01*
X192750000Y-125250000D02*
X192150000Y-125850000D01*
X193400000Y-123700000D02*
X192650000Y-123700000D01*
X193400000Y-125250000D02*
X193600000Y-125050000D01*
X193600000Y-125050000D02*
X193600000Y-124550000D01*
X193600000Y-123900000D02*
X193600000Y-124550000D01*
X193400000Y-123700000D02*
X193600000Y-123900000D01*
X194150000Y-126200000D02*
X194150000Y-127520000D01*
X191650000Y-130020000D02*
X191650000Y-130700000D01*
X194150000Y-127520000D02*
X191650000Y-130020000D01*
X195150000Y-128150000D02*
X195800010Y-128800010D01*
X195800010Y-128800010D02*
X197150010Y-128800010D01*
X197150010Y-128800010D02*
X198300000Y-129950000D01*
X195150000Y-126200000D02*
X195150000Y-128150000D01*
X195150000Y-128150000D02*
X195250000Y-128250000D01*
X198150000Y-129950000D02*
X198300000Y-129950000D01*
X198300000Y-129950000D02*
X198300000Y-129850000D01*
X198300000Y-129950000D02*
X198300000Y-129650000D01*
D35*
X173400000Y-113100000D02*
X173400000Y-113900000D01*
D34*
X210450000Y-133000000D02*
X211500000Y-133000000D01*
X211500000Y-133000000D02*
X211950000Y-132550000D01*
D35*
X198250000Y-112800000D02*
X196125000Y-112800000D01*
X196125000Y-112800000D02*
X195825000Y-112500000D01*
D34*
X195825000Y-112500000D02*
X195950000Y-112500000D01*
D35*
X198250000Y-113800000D02*
X195925000Y-113800000D01*
X195925000Y-113800000D02*
X195825000Y-113900000D01*
D34*
X198200000Y-113850000D02*
X198250000Y-113800000D01*
X207925000Y-121200000D02*
X208400000Y-121675000D01*
X208400000Y-121675000D02*
X209500000Y-121675000D01*
X208400000Y-121675000D02*
X209500000Y-121675000D01*
X209275000Y-121900000D02*
X209500000Y-121675000D01*
X205700000Y-120500000D02*
X204900000Y-119700000D01*
X204900000Y-119700000D02*
X204100000Y-119700000D01*
X205700000Y-120500000D02*
X206400000Y-121200000D01*
X206400000Y-121200000D02*
X206475000Y-121200000D01*
X203584312Y-119700000D02*
X204100000Y-119700000D01*
X204100000Y-119700000D02*
X204900000Y-119700000D01*
X201150000Y-119700000D02*
X203584312Y-119700000D01*
X209500000Y-118925000D02*
X208625000Y-119800000D01*
X208625000Y-119800000D02*
X207925000Y-119800000D01*
X198913609Y-116536391D02*
X200152393Y-116536391D01*
X200152393Y-116536391D02*
X201016002Y-117400000D01*
X198650000Y-116800000D02*
X198913609Y-116536391D01*
X206475000Y-119800000D02*
X205800000Y-119800000D01*
X203013590Y-118500000D02*
X201913590Y-117400000D01*
X205800000Y-119800000D02*
X205000000Y-119000000D01*
X205000000Y-119000000D02*
X204347578Y-119000000D01*
X204347578Y-119000000D02*
X203847578Y-118500000D01*
X203847578Y-118500000D02*
X203013590Y-118500000D01*
X201913590Y-117400000D02*
X201016002Y-117400000D01*
X198650000Y-116800000D02*
X198650000Y-117700000D01*
X211000000Y-118925000D02*
X209975000Y-117900000D01*
X208425000Y-117900000D02*
X207925000Y-118400000D01*
X209975000Y-117900000D02*
X208425000Y-117900000D01*
X198150000Y-117700000D02*
X198150000Y-116663590D01*
X198727209Y-116086381D02*
X200536381Y-116086381D01*
X200536381Y-116086381D02*
X201350000Y-116900000D01*
X198150000Y-116663590D02*
X198727209Y-116086381D01*
X201350000Y-116900000D02*
X202050000Y-116900000D01*
X202050000Y-116900000D02*
X203190000Y-118040000D01*
X203190000Y-118040000D02*
X204023988Y-118040000D01*
X206375000Y-118500000D02*
X206475000Y-118400000D01*
X204023988Y-118040000D02*
X204483988Y-118500000D01*
X204483988Y-118500000D02*
X206375000Y-118500000D01*
X195550000Y-116450000D02*
X197260000Y-116450000D01*
X197260000Y-116450000D02*
X197280000Y-116470000D01*
X199650000Y-117700000D02*
X199650000Y-118626412D01*
X199650000Y-118626412D02*
X198576422Y-119699990D01*
X198576422Y-119699990D02*
X198555685Y-119699990D01*
X198555685Y-119699990D02*
X197990000Y-119699990D01*
X193600000Y-114500000D02*
X195550000Y-116450000D01*
X193725000Y-112500000D02*
X193600000Y-112625000D01*
X194375000Y-112500000D02*
X193725000Y-112500000D01*
X193600000Y-112625000D02*
X193600000Y-114500000D01*
X194980000Y-115180000D02*
X194375000Y-114575000D01*
X202466475Y-116337363D02*
X201423773Y-116337363D01*
X201423773Y-116337363D02*
X200722781Y-115636371D01*
X200722781Y-115636371D02*
X195436371Y-115636371D01*
X195436371Y-115636371D02*
X194980000Y-115180000D01*
X194375000Y-114575000D02*
X194375000Y-113900000D01*
X201150000Y-119200000D02*
X201150000Y-118960000D01*
X201150000Y-118960000D02*
X201770000Y-118340000D01*
X196650000Y-125050000D02*
X197630000Y-124070000D01*
X199939999Y-123450001D02*
X198249999Y-123450001D01*
X197630000Y-124070000D02*
X197850000Y-123850000D01*
X198249999Y-123450001D02*
X197630000Y-124070000D01*
X211500000Y-125750000D02*
X211500000Y-125010000D01*
X211500000Y-125010000D02*
X210505000Y-124015000D01*
X210505000Y-124015000D02*
X210505000Y-123730000D01*
X210325000Y-123550000D02*
X206750000Y-123550000D01*
X203100000Y-123550000D02*
X202800000Y-123850000D01*
X202800000Y-123850000D02*
X202400000Y-123850000D01*
X196650000Y-125050000D02*
X196650000Y-126200000D01*
X206750000Y-123550000D02*
X203100000Y-123550000D01*
X210325000Y-123550000D02*
X210505000Y-123730000D01*
X202531286Y-124790887D02*
X203187174Y-124134999D01*
X203187174Y-124134999D02*
X207225001Y-124134999D01*
X207225001Y-124134999D02*
X208000000Y-124909998D01*
X208000000Y-124909998D02*
X208000000Y-125245000D01*
X208000000Y-125245000D02*
X208000000Y-125895000D01*
X199867926Y-124397265D02*
X197952735Y-124397265D01*
X197952735Y-124397265D02*
X197150000Y-125200000D01*
X197150000Y-125200000D02*
X197150000Y-126200000D01*
X209600000Y-125750000D02*
X208145000Y-125750000D01*
X208145000Y-125750000D02*
X208000000Y-125895000D01*
D37*
G36*
X178185000Y-102249250D02*
X178343750Y-102408000D01*
X179718000Y-102408000D01*
X179718000Y-102388000D01*
X179972000Y-102388000D01*
X179972000Y-102408000D01*
X181346250Y-102408000D01*
X181505000Y-102249250D01*
X181505000Y-101935750D01*
X196865000Y-101935750D01*
X196865000Y-102276309D01*
X196874813Y-102300000D01*
X196865000Y-102323691D01*
X196865000Y-102514250D01*
X197023750Y-102673000D01*
X197124974Y-102673000D01*
X197140301Y-102688327D01*
X197373690Y-102785000D01*
X197964250Y-102785000D01*
X198076250Y-102673000D01*
X198123000Y-102673000D01*
X198123000Y-101777000D01*
X198377000Y-101777000D01*
X198377000Y-102673000D01*
X198423750Y-102673000D01*
X198535750Y-102785000D01*
X199126310Y-102785000D01*
X199359699Y-102688327D01*
X199375026Y-102673000D01*
X199476250Y-102673000D01*
X199635000Y-102514250D01*
X199635000Y-102323691D01*
X199625187Y-102300000D01*
X199635000Y-102276309D01*
X199635000Y-101935750D01*
X205665000Y-101935750D01*
X205665000Y-102276309D01*
X205674813Y-102300000D01*
X205665000Y-102323691D01*
X205665000Y-102514250D01*
X205823750Y-102673000D01*
X205924974Y-102673000D01*
X205940301Y-102688327D01*
X206173690Y-102785000D01*
X206764250Y-102785000D01*
X206876250Y-102673000D01*
X206923000Y-102673000D01*
X206923000Y-101777000D01*
X207177000Y-101777000D01*
X207177000Y-102673000D01*
X207223750Y-102673000D01*
X207335750Y-102785000D01*
X207926310Y-102785000D01*
X208159699Y-102688327D01*
X208175026Y-102673000D01*
X208276250Y-102673000D01*
X208435000Y-102514250D01*
X208435000Y-102323691D01*
X208425187Y-102300000D01*
X208435000Y-102276309D01*
X208435000Y-101935750D01*
X208276250Y-101777000D01*
X207177000Y-101777000D01*
X206923000Y-101777000D01*
X205823750Y-101777000D01*
X205665000Y-101935750D01*
X199635000Y-101935750D01*
X199476250Y-101777000D01*
X198377000Y-101777000D01*
X198123000Y-101777000D01*
X197023750Y-101777000D01*
X196865000Y-101935750D01*
X181505000Y-101935750D01*
X181505000Y-100710000D01*
X197041975Y-100710000D01*
X196961673Y-100790302D01*
X196865000Y-101023691D01*
X196865000Y-101364250D01*
X197023750Y-101523000D01*
X198123000Y-101523000D01*
X198123000Y-101503000D01*
X198377000Y-101503000D01*
X198377000Y-101523000D01*
X199476250Y-101523000D01*
X199635000Y-101364250D01*
X199635000Y-101023691D01*
X199538327Y-100790302D01*
X199458025Y-100710000D01*
X205841975Y-100710000D01*
X205761673Y-100790302D01*
X205665000Y-101023691D01*
X205665000Y-101364250D01*
X205823750Y-101523000D01*
X206923000Y-101523000D01*
X206923000Y-101503000D01*
X207177000Y-101503000D01*
X207177000Y-101523000D01*
X208276250Y-101523000D01*
X208435000Y-101364250D01*
X208435000Y-101023691D01*
X208338327Y-100790302D01*
X208258025Y-100710000D01*
X219978315Y-100710000D01*
X219051296Y-101093037D01*
X218790466Y-101353413D01*
X218661057Y-101406883D01*
X218397808Y-101669673D01*
X218344111Y-101798989D01*
X218086425Y-102056226D01*
X217563596Y-103315337D01*
X217563178Y-103793896D01*
X217555162Y-103813201D01*
X217554838Y-104185167D01*
X217562820Y-104204485D01*
X217562406Y-104678682D01*
X218083037Y-105938704D01*
X218343413Y-106199534D01*
X218396883Y-106328943D01*
X218659673Y-106592192D01*
X218788989Y-106645889D01*
X219046226Y-106903575D01*
X220305337Y-107426404D01*
X220783896Y-107426822D01*
X220803201Y-107434838D01*
X221175167Y-107435162D01*
X221194485Y-107427180D01*
X221668682Y-107427594D01*
X222928704Y-106906963D01*
X223189534Y-106646587D01*
X223318943Y-106593117D01*
X223582192Y-106330327D01*
X223635889Y-106201011D01*
X223893575Y-105943774D01*
X224290000Y-104989077D01*
X224290000Y-132930069D01*
X224178953Y-133488340D01*
X223902333Y-133902331D01*
X223488338Y-134178954D01*
X222930069Y-134290000D01*
X219338110Y-134290000D01*
X219484794Y-133936745D01*
X219485145Y-133535000D01*
X220700000Y-133535000D01*
X221134346Y-133448603D01*
X221502566Y-133202566D01*
X223252566Y-131452566D01*
X223498604Y-131084345D01*
X223585000Y-130650000D01*
X223535000Y-130398631D01*
X223535000Y-121650000D01*
X223448603Y-121215654D01*
X223202566Y-120847434D01*
X220602566Y-118247434D01*
X220568991Y-118225000D01*
X220234346Y-118001397D01*
X219800000Y-117915000D01*
X219431538Y-117915000D01*
X219484794Y-117786745D01*
X219485206Y-117315323D01*
X219305180Y-116879628D01*
X218972125Y-116545991D01*
X218536745Y-116365206D01*
X218065323Y-116364794D01*
X217629628Y-116544820D01*
X217295991Y-116877875D01*
X217239794Y-117013214D01*
X215800790Y-115574210D01*
X215513675Y-115382367D01*
X215457484Y-115371190D01*
X215175000Y-115314999D01*
X215174995Y-115315000D01*
X211066579Y-115315000D01*
X209551580Y-113800000D01*
X210025787Y-113325792D01*
X210025790Y-113325790D01*
X210217633Y-113038675D01*
X210233102Y-112960910D01*
X210285001Y-112700000D01*
X210285000Y-112699995D01*
X210285000Y-107647440D01*
X210600000Y-107647440D01*
X210835317Y-107603162D01*
X211051441Y-107464090D01*
X211196431Y-107251890D01*
X211247440Y-107000000D01*
X211247440Y-106200000D01*
X211203162Y-105964683D01*
X211097518Y-105800507D01*
X211138327Y-105759698D01*
X211235000Y-105526309D01*
X211235000Y-105285750D01*
X211076250Y-105127000D01*
X210327000Y-105127000D01*
X210327000Y-105147000D01*
X210073000Y-105147000D01*
X210073000Y-105127000D01*
X210053000Y-105127000D01*
X210053000Y-104873000D01*
X210073000Y-104873000D01*
X210073000Y-104123750D01*
X210327000Y-104123750D01*
X210327000Y-104873000D01*
X211076250Y-104873000D01*
X211235000Y-104714250D01*
X211235000Y-104473691D01*
X211138327Y-104240302D01*
X210959699Y-104061673D01*
X210726310Y-103965000D01*
X210485750Y-103965000D01*
X210327000Y-104123750D01*
X210073000Y-104123750D01*
X209914250Y-103965000D01*
X209673690Y-103965000D01*
X209440301Y-104061673D01*
X209261673Y-104240302D01*
X209165000Y-104473691D01*
X209165000Y-104714250D01*
X209323748Y-104872998D01*
X209165000Y-104872998D01*
X209165000Y-104915000D01*
X208141797Y-104915000D01*
X208051890Y-104853569D01*
X207800000Y-104802560D01*
X206300000Y-104802560D01*
X206064683Y-104846838D01*
X205940108Y-104927000D01*
X205823750Y-104927000D01*
X205665000Y-105085750D01*
X205665000Y-105276309D01*
X205680269Y-105313171D01*
X205652560Y-105450000D01*
X205652560Y-106150000D01*
X205681821Y-106305507D01*
X205652560Y-106450000D01*
X205652560Y-107150000D01*
X205681821Y-107305507D01*
X205652560Y-107450000D01*
X205652560Y-108150000D01*
X205681821Y-108305507D01*
X205652560Y-108450000D01*
X205652560Y-109150000D01*
X205678919Y-109290087D01*
X205665000Y-109323691D01*
X205665000Y-109514250D01*
X205823750Y-109673000D01*
X205940640Y-109673000D01*
X206048110Y-109746431D01*
X206300000Y-109797440D01*
X207800000Y-109797440D01*
X208035317Y-109753162D01*
X208159892Y-109673000D01*
X208276250Y-109673000D01*
X208435000Y-109514250D01*
X208435000Y-109323691D01*
X208419731Y-109286829D01*
X208447440Y-109150000D01*
X208447440Y-108450000D01*
X208418179Y-108294493D01*
X208447440Y-108150000D01*
X208447440Y-107685000D01*
X208515000Y-107685000D01*
X208515000Y-112333421D01*
X208439677Y-112408744D01*
X208418179Y-112294493D01*
X208447440Y-112150000D01*
X208447440Y-111450000D01*
X208421081Y-111309913D01*
X208435000Y-111276309D01*
X208435000Y-111085750D01*
X208276250Y-110927000D01*
X208159360Y-110927000D01*
X208051890Y-110853569D01*
X207800000Y-110802560D01*
X206300000Y-110802560D01*
X206064683Y-110846838D01*
X205940108Y-110927000D01*
X205823750Y-110927000D01*
X205665000Y-111085750D01*
X205665000Y-111276309D01*
X205680269Y-111313171D01*
X205652560Y-111450000D01*
X205652560Y-112150000D01*
X205681821Y-112305507D01*
X205652560Y-112450000D01*
X205652560Y-113150000D01*
X205681821Y-113305507D01*
X205652560Y-113450000D01*
X205652560Y-114150000D01*
X205696838Y-114385317D01*
X205835910Y-114601441D01*
X206048110Y-114746431D01*
X206300000Y-114797440D01*
X207800000Y-114797440D01*
X208006925Y-114758504D01*
X209363421Y-116115000D01*
X203818927Y-116115000D01*
X203797046Y-116093081D01*
X203420870Y-115936880D01*
X203344417Y-115751848D01*
X203162478Y-115569591D01*
X203300000Y-115597440D01*
X204000000Y-115597440D01*
X204140086Y-115571081D01*
X204173690Y-115585000D01*
X204364250Y-115585000D01*
X204523000Y-115426250D01*
X204523000Y-115309360D01*
X204596431Y-115201890D01*
X204647440Y-114950000D01*
X204647440Y-114327000D01*
X204777000Y-114327000D01*
X204777000Y-115426250D01*
X204935750Y-115585000D01*
X205126310Y-115585000D01*
X205359699Y-115488327D01*
X205538327Y-115309698D01*
X205635000Y-115076309D01*
X205635000Y-114485750D01*
X205476250Y-114327000D01*
X204777000Y-114327000D01*
X204647440Y-114327000D01*
X204647440Y-113450000D01*
X204603162Y-113214683D01*
X204523000Y-113090108D01*
X204523000Y-112973750D01*
X204777000Y-112973750D01*
X204777000Y-114073000D01*
X205476250Y-114073000D01*
X205635000Y-113914250D01*
X205635000Y-113323691D01*
X205538327Y-113090302D01*
X205359699Y-112911673D01*
X205126310Y-112815000D01*
X204935750Y-112815000D01*
X204777000Y-112973750D01*
X204523000Y-112973750D01*
X204364250Y-112815000D01*
X204173690Y-112815000D01*
X204136829Y-112830268D01*
X204000000Y-112802560D01*
X203300000Y-112802560D01*
X203144493Y-112831821D01*
X203000000Y-112802560D01*
X202300000Y-112802560D01*
X202144493Y-112831821D01*
X202000000Y-112802560D01*
X201300000Y-112802560D01*
X201159914Y-112828919D01*
X201126310Y-112815000D01*
X200935750Y-112815000D01*
X200777000Y-112973750D01*
X200777000Y-113090640D01*
X200703569Y-113198110D01*
X200652560Y-113450000D01*
X200652560Y-114347000D01*
X200523000Y-114347000D01*
X200523000Y-114327000D01*
X199823750Y-114327000D01*
X199665000Y-114485750D01*
X199665000Y-114851371D01*
X196607356Y-114851371D01*
X196626441Y-114839090D01*
X196731726Y-114685000D01*
X197158203Y-114685000D01*
X197248110Y-114746431D01*
X197500000Y-114797440D01*
X199000000Y-114797440D01*
X199235317Y-114753162D01*
X199451441Y-114614090D01*
X199596431Y-114401890D01*
X199647440Y-114150000D01*
X199647440Y-113450000D01*
X199623674Y-113323691D01*
X199665000Y-113323691D01*
X199665000Y-113914250D01*
X199823750Y-114073000D01*
X200523000Y-114073000D01*
X200523000Y-112973750D01*
X200364250Y-112815000D01*
X200173690Y-112815000D01*
X199940301Y-112911673D01*
X199761673Y-113090302D01*
X199665000Y-113323691D01*
X199623674Y-113323691D01*
X199618179Y-113294493D01*
X199647440Y-113150000D01*
X199647440Y-112450000D01*
X199618179Y-112294493D01*
X199647440Y-112150000D01*
X199647440Y-111450000D01*
X199618179Y-111294493D01*
X199647440Y-111150000D01*
X199647440Y-110450000D01*
X199621081Y-110309913D01*
X199635000Y-110276309D01*
X199635000Y-110085750D01*
X205665000Y-110085750D01*
X205665000Y-110276309D01*
X205674813Y-110300000D01*
X205665000Y-110323691D01*
X205665000Y-110514250D01*
X205823750Y-110673000D01*
X205924974Y-110673000D01*
X205940301Y-110688327D01*
X206173690Y-110785000D01*
X206764250Y-110785000D01*
X206876250Y-110673000D01*
X206923000Y-110673000D01*
X206923000Y-109927000D01*
X207177000Y-109927000D01*
X207177000Y-110673000D01*
X207223750Y-110673000D01*
X207335750Y-110785000D01*
X207926310Y-110785000D01*
X208159699Y-110688327D01*
X208175026Y-110673000D01*
X208276250Y-110673000D01*
X208435000Y-110514250D01*
X208435000Y-110323691D01*
X208425187Y-110300000D01*
X208435000Y-110276309D01*
X208435000Y-110085750D01*
X208276250Y-109927000D01*
X208175026Y-109927000D01*
X208159699Y-109911673D01*
X207926310Y-109815000D01*
X207335750Y-109815000D01*
X207223750Y-109927000D01*
X207177000Y-109927000D01*
X206923000Y-109927000D01*
X206876250Y-109927000D01*
X206764250Y-109815000D01*
X206173690Y-109815000D01*
X205940301Y-109911673D01*
X205924974Y-109927000D01*
X205823750Y-109927000D01*
X205665000Y-110085750D01*
X199635000Y-110085750D01*
X199476250Y-109927000D01*
X199359360Y-109927000D01*
X199251890Y-109853569D01*
X199000000Y-109802560D01*
X197500000Y-109802560D01*
X197264683Y-109846838D01*
X197140108Y-109927000D01*
X197023750Y-109927000D01*
X196865000Y-110085750D01*
X196865000Y-110276309D01*
X196880269Y-110313171D01*
X196852560Y-110450000D01*
X196852560Y-111150000D01*
X196881821Y-111305507D01*
X196852560Y-111450000D01*
X196852560Y-111915000D01*
X196801742Y-111915000D01*
X196778162Y-111789683D01*
X196639090Y-111573559D01*
X196426890Y-111428569D01*
X196175000Y-111377560D01*
X195475000Y-111377560D01*
X195239683Y-111421838D01*
X195099273Y-111512190D01*
X194976890Y-111428569D01*
X194725000Y-111377560D01*
X194025000Y-111377560D01*
X193789683Y-111421838D01*
X193573559Y-111560910D01*
X193428569Y-111773110D01*
X193428389Y-111774000D01*
X193424594Y-111774755D01*
X193169921Y-111944921D01*
X193044921Y-112069921D01*
X192874755Y-112324593D01*
X192826998Y-112564683D01*
X192815000Y-112625000D01*
X192815000Y-114500000D01*
X192859756Y-114725000D01*
X192633690Y-114725000D01*
X192463787Y-114795376D01*
X192366310Y-114755000D01*
X192125750Y-114755000D01*
X191967000Y-114913750D01*
X191967000Y-115663000D01*
X192716250Y-115663000D01*
X192746250Y-115633000D01*
X193033000Y-115633000D01*
X193033000Y-115613000D01*
X193287000Y-115613000D01*
X193287000Y-115633000D01*
X193307000Y-115633000D01*
X193307000Y-115887000D01*
X193287000Y-115887000D01*
X193287000Y-115907000D01*
X193033000Y-115907000D01*
X193033000Y-115887000D01*
X192283750Y-115887000D01*
X192253750Y-115917000D01*
X191967000Y-115917000D01*
X191967000Y-115937000D01*
X191713000Y-115937000D01*
X191713000Y-115917000D01*
X190963750Y-115917000D01*
X190805000Y-116075750D01*
X190805000Y-116316309D01*
X190883158Y-116505000D01*
X188402675Y-116505000D01*
X188306777Y-116465180D01*
X187895029Y-116464821D01*
X187514485Y-116622058D01*
X187223081Y-116912954D01*
X187065180Y-117293223D01*
X187064821Y-117704971D01*
X187222058Y-118085515D01*
X187512954Y-118376919D01*
X187765033Y-118481591D01*
X187764821Y-118724971D01*
X187922058Y-119105515D01*
X188107507Y-119291288D01*
X188106007Y-119294900D01*
X188015029Y-119294821D01*
X187634485Y-119452058D01*
X187343081Y-119742954D01*
X187185180Y-120123223D01*
X187184821Y-120534971D01*
X187341633Y-120914487D01*
X187293081Y-120962954D01*
X187135180Y-121343223D01*
X187134821Y-121754971D01*
X187273864Y-122091482D01*
X187165180Y-122353223D01*
X187164821Y-122764971D01*
X187322058Y-123145515D01*
X187354409Y-123177922D01*
X187215180Y-123513223D01*
X187214821Y-123924971D01*
X187372058Y-124305515D01*
X187662954Y-124596919D01*
X188043223Y-124754820D01*
X188454971Y-124755179D01*
X188835515Y-124597942D01*
X189126919Y-124307046D01*
X189260644Y-123985000D01*
X190115000Y-123985000D01*
X190115000Y-124064250D01*
X190273750Y-124223000D01*
X191023000Y-124223000D01*
X191023000Y-124203000D01*
X191277000Y-124203000D01*
X191277000Y-124223000D01*
X191297000Y-124223000D01*
X191297000Y-124477000D01*
X191277000Y-124477000D01*
X191277000Y-124497000D01*
X191023000Y-124497000D01*
X191023000Y-124477000D01*
X190273750Y-124477000D01*
X190115000Y-124635750D01*
X190115000Y-124876309D01*
X190211673Y-125109698D01*
X190253634Y-125151660D01*
X190153569Y-125298110D01*
X190102560Y-125550000D01*
X190102560Y-126350000D01*
X190133577Y-126514843D01*
X188833420Y-127815000D01*
X188467585Y-127815000D01*
X188106777Y-127665180D01*
X187695029Y-127664821D01*
X187314485Y-127822058D01*
X187023081Y-128112954D01*
X186865180Y-128493223D01*
X186864821Y-128904971D01*
X187022058Y-129285515D01*
X187312954Y-129576919D01*
X187693223Y-129734820D01*
X188104971Y-129735179D01*
X188315000Y-129648397D01*
X188315000Y-132774995D01*
X188314999Y-132775000D01*
X188360042Y-133001441D01*
X188382367Y-133113675D01*
X188530463Y-133335317D01*
X188574210Y-133400790D01*
X188649208Y-133475787D01*
X188649210Y-133475790D01*
X188936325Y-133667633D01*
X188992516Y-133678810D01*
X189275000Y-133735001D01*
X189275005Y-133735000D01*
X190308420Y-133735000D01*
X190863421Y-134290000D01*
X186492703Y-134290000D01*
X186539353Y-134143958D01*
X185675000Y-133279605D01*
X185660858Y-133293748D01*
X185481253Y-133114143D01*
X185495395Y-133100000D01*
X185854605Y-133100000D01*
X186718958Y-133964353D01*
X186970259Y-133884080D01*
X187171718Y-133328721D01*
X187145315Y-132738542D01*
X186970259Y-132315920D01*
X186718958Y-132235647D01*
X185854605Y-133100000D01*
X185495395Y-133100000D01*
X185481253Y-133085858D01*
X185660858Y-132906253D01*
X185675000Y-132920395D01*
X186539353Y-132056042D01*
X186459080Y-131804741D01*
X185903721Y-131603282D01*
X185313542Y-131629685D01*
X184890920Y-131804741D01*
X184810648Y-132056040D01*
X184695938Y-131941330D01*
X184656248Y-131981020D01*
X184517283Y-131841812D01*
X184460000Y-131818026D01*
X184460000Y-127094473D01*
X185002853Y-126551620D01*
X185203223Y-126634820D01*
X185614971Y-126635179D01*
X185995515Y-126477942D01*
X186286919Y-126187046D01*
X186444820Y-125806777D01*
X186445179Y-125395029D01*
X186287942Y-125014485D01*
X186029039Y-124755130D01*
X186084971Y-124755179D01*
X186465515Y-124597942D01*
X186756919Y-124307046D01*
X186914820Y-123926777D01*
X186915179Y-123515029D01*
X186757942Y-123134485D01*
X186705602Y-123082053D01*
X186844820Y-122746777D01*
X186845179Y-122335029D01*
X186687942Y-121954485D01*
X186557135Y-121823450D01*
X186584820Y-121756777D01*
X186585179Y-121345029D01*
X186427942Y-120964485D01*
X186137046Y-120673081D01*
X185756777Y-120515180D01*
X185345029Y-120514821D01*
X185295460Y-120535303D01*
X183545066Y-118784908D01*
X183545179Y-118655029D01*
X183433606Y-118385000D01*
X185132415Y-118385000D01*
X185493223Y-118534820D01*
X185904971Y-118535179D01*
X186285515Y-118377942D01*
X186576919Y-118087046D01*
X186734820Y-117706777D01*
X186735179Y-117295029D01*
X186577942Y-116914485D01*
X186287046Y-116623081D01*
X185906777Y-116465180D01*
X185495029Y-116464821D01*
X185131567Y-116615000D01*
X182300000Y-116615000D01*
X181961325Y-116682367D01*
X181674210Y-116874210D01*
X181674208Y-116874213D01*
X181305552Y-117242869D01*
X180944485Y-117392058D01*
X180823245Y-117513087D01*
X179885000Y-116574842D01*
X179885000Y-115263691D01*
X190805000Y-115263691D01*
X190805000Y-115504250D01*
X190963750Y-115663000D01*
X191713000Y-115663000D01*
X191713000Y-114913750D01*
X191554250Y-114755000D01*
X191313690Y-114755000D01*
X191080301Y-114851673D01*
X190901673Y-115030302D01*
X190805000Y-115263691D01*
X179885000Y-115263691D01*
X179885000Y-113778805D01*
X179976919Y-113687046D01*
X180134820Y-113306777D01*
X180135179Y-112895029D01*
X179977942Y-112514485D01*
X179687046Y-112223081D01*
X179306777Y-112065180D01*
X178895029Y-112064821D01*
X178564924Y-112201217D01*
X178417046Y-112053081D01*
X178036777Y-111895180D01*
X177625029Y-111894821D01*
X177244485Y-112052058D01*
X176953081Y-112342954D01*
X176795180Y-112723223D01*
X176794821Y-113134971D01*
X176851913Y-113273144D01*
X176471681Y-113115258D01*
X175880911Y-113114743D01*
X175334914Y-113340344D01*
X174916812Y-113757717D01*
X174690258Y-114303319D01*
X174689743Y-114894089D01*
X174915344Y-115440086D01*
X175056140Y-115581128D01*
X175016330Y-115620938D01*
X175131040Y-115735648D01*
X174879741Y-115815920D01*
X174678282Y-116371279D01*
X174704685Y-116961458D01*
X174879741Y-117384080D01*
X175131042Y-117464353D01*
X175995395Y-116600000D01*
X175981253Y-116585858D01*
X176160858Y-116406253D01*
X176175000Y-116420395D01*
X176189143Y-116406253D01*
X176368748Y-116585858D01*
X176354605Y-116600000D01*
X177218958Y-117464353D01*
X177470259Y-117384080D01*
X177515000Y-117260743D01*
X177515000Y-117400000D01*
X177574755Y-117700407D01*
X177744921Y-117955079D01*
X180763061Y-120973219D01*
X180623081Y-121112954D01*
X180472268Y-121476153D01*
X175374209Y-126574211D01*
X175182366Y-126861326D01*
X175182366Y-126861327D01*
X175114998Y-127200001D01*
X175114999Y-127200006D01*
X175114999Y-127821846D01*
X175114485Y-127822058D01*
X174934825Y-128001405D01*
X174935179Y-127595029D01*
X174777942Y-127214485D01*
X174487046Y-126923081D01*
X174123848Y-126772268D01*
X173747440Y-126395860D01*
X173747440Y-126100000D01*
X173703162Y-125864683D01*
X173597518Y-125700507D01*
X173638327Y-125659698D01*
X173735000Y-125426309D01*
X173735000Y-125185750D01*
X173576250Y-125027000D01*
X172827000Y-125027000D01*
X172827000Y-125047000D01*
X172573000Y-125047000D01*
X172573000Y-125027000D01*
X171823750Y-125027000D01*
X171665000Y-125185750D01*
X171665000Y-125426309D01*
X171761673Y-125659698D01*
X171803634Y-125701660D01*
X171703569Y-125848110D01*
X171652560Y-126100000D01*
X171652560Y-126900000D01*
X171696838Y-127135317D01*
X171835910Y-127351441D01*
X172048110Y-127496431D01*
X172300000Y-127547440D01*
X172395860Y-127547440D01*
X172872869Y-128024448D01*
X172894083Y-128075792D01*
X171684663Y-127573596D01*
X171206104Y-127573178D01*
X171186799Y-127565162D01*
X170814833Y-127564838D01*
X170795515Y-127572820D01*
X170321318Y-127572406D01*
X169061296Y-128093037D01*
X168800466Y-128353413D01*
X168671057Y-128406883D01*
X168407808Y-128669673D01*
X168354111Y-128798989D01*
X168096425Y-129056226D01*
X167710000Y-129986840D01*
X167710000Y-124373691D01*
X171665000Y-124373691D01*
X171665000Y-124614250D01*
X171823750Y-124773000D01*
X172573000Y-124773000D01*
X172573000Y-124023750D01*
X172827000Y-124023750D01*
X172827000Y-124773000D01*
X173576250Y-124773000D01*
X173735000Y-124614250D01*
X173735000Y-124373691D01*
X173638327Y-124140302D01*
X173459699Y-123961673D01*
X173226310Y-123865000D01*
X172985750Y-123865000D01*
X172827000Y-124023750D01*
X172573000Y-124023750D01*
X172414250Y-123865000D01*
X172173690Y-123865000D01*
X171940301Y-123961673D01*
X171761673Y-124140302D01*
X171665000Y-124373691D01*
X167710000Y-124373691D01*
X167710000Y-123823000D01*
X169414250Y-123823000D01*
X169573000Y-123664250D01*
X169573000Y-122108500D01*
X169827000Y-122108500D01*
X169827000Y-123664250D01*
X169985750Y-123823000D01*
X172366310Y-123823000D01*
X172599699Y-123726327D01*
X172778327Y-123547698D01*
X172875000Y-123314309D01*
X172875000Y-122267250D01*
X172716250Y-122108500D01*
X169827000Y-122108500D01*
X169573000Y-122108500D01*
X169553000Y-122108500D01*
X169553000Y-121854500D01*
X169573000Y-121854500D01*
X169573000Y-120298750D01*
X169827000Y-120298750D01*
X169827000Y-121854500D01*
X172716250Y-121854500D01*
X172875000Y-121695750D01*
X172875000Y-120648691D01*
X172778327Y-120415302D01*
X172599699Y-120236673D01*
X172366310Y-120140000D01*
X169985750Y-120140000D01*
X169827000Y-120298750D01*
X169573000Y-120298750D01*
X169414250Y-120140000D01*
X167710000Y-120140000D01*
X167710000Y-117643958D01*
X175310647Y-117643958D01*
X175390920Y-117895259D01*
X175946279Y-118096718D01*
X176536458Y-118070315D01*
X176959080Y-117895259D01*
X177039353Y-117643958D01*
X176175000Y-116779605D01*
X175310647Y-117643958D01*
X167710000Y-117643958D01*
X167710000Y-115060000D01*
X169414250Y-115060000D01*
X169573000Y-114901250D01*
X169573000Y-113345500D01*
X169553000Y-113345500D01*
X169553000Y-113091500D01*
X169573000Y-113091500D01*
X169573000Y-111535750D01*
X169827000Y-111535750D01*
X169827000Y-113091500D01*
X169847000Y-113091500D01*
X169847000Y-113345500D01*
X169827000Y-113345500D01*
X169827000Y-114901250D01*
X169985750Y-115060000D01*
X172366310Y-115060000D01*
X172599699Y-114963327D01*
X172778327Y-114784698D01*
X172790759Y-114754685D01*
X172812954Y-114776919D01*
X173193223Y-114934820D01*
X173604971Y-114935179D01*
X173985515Y-114777942D01*
X174276919Y-114487046D01*
X174434820Y-114106777D01*
X174435179Y-113695029D01*
X174297440Y-113361674D01*
X174297440Y-112800000D01*
X174253162Y-112564683D01*
X174237661Y-112540594D01*
X174285000Y-112426309D01*
X174285000Y-112285750D01*
X174126250Y-112127000D01*
X173525000Y-112127000D01*
X173525000Y-112147000D01*
X173275000Y-112147000D01*
X173275000Y-112127000D01*
X173253000Y-112127000D01*
X173253000Y-111873000D01*
X173275000Y-111873000D01*
X173275000Y-111223750D01*
X173525000Y-111223750D01*
X173525000Y-111873000D01*
X174126250Y-111873000D01*
X174285000Y-111714250D01*
X174285000Y-111573691D01*
X174188327Y-111340302D01*
X174009699Y-111161673D01*
X173776310Y-111065000D01*
X173683750Y-111065000D01*
X173525000Y-111223750D01*
X173275000Y-111223750D01*
X173116250Y-111065000D01*
X173023690Y-111065000D01*
X172790301Y-111161673D01*
X172611673Y-111340302D01*
X172562766Y-111458375D01*
X172366310Y-111377000D01*
X169985750Y-111377000D01*
X169827000Y-111535750D01*
X169573000Y-111535750D01*
X169414250Y-111377000D01*
X167710000Y-111377000D01*
X167710000Y-107070750D01*
X168335000Y-107070750D01*
X168335000Y-108661309D01*
X168431673Y-108894698D01*
X168610301Y-109073327D01*
X168843690Y-109170000D01*
X169709250Y-109170000D01*
X169868000Y-109011250D01*
X169868000Y-106912000D01*
X170122000Y-106912000D01*
X170122000Y-109011250D01*
X170280750Y-109170000D01*
X171146310Y-109170000D01*
X171379699Y-109073327D01*
X171558327Y-108894698D01*
X171655000Y-108661309D01*
X171655000Y-107070750D01*
X171630000Y-107045750D01*
X172435000Y-107045750D01*
X172435000Y-108011309D01*
X172531673Y-108244698D01*
X172710301Y-108423327D01*
X172943690Y-108520000D01*
X173036250Y-108520000D01*
X173195000Y-108361250D01*
X173195000Y-106887000D01*
X172593750Y-106887000D01*
X172435000Y-107045750D01*
X171630000Y-107045750D01*
X171496250Y-106912000D01*
X170122000Y-106912000D01*
X169868000Y-106912000D01*
X168493750Y-106912000D01*
X168335000Y-107070750D01*
X167710000Y-107070750D01*
X167710000Y-102820750D01*
X168335000Y-102820750D01*
X168335000Y-104661309D01*
X168386235Y-104785000D01*
X168335000Y-104908691D01*
X168335000Y-106499250D01*
X168493750Y-106658000D01*
X169868000Y-106658000D01*
X169868000Y-102662000D01*
X170122000Y-102662000D01*
X170122000Y-106658000D01*
X171496250Y-106658000D01*
X171655000Y-106499250D01*
X171655000Y-104908691D01*
X171603765Y-104785000D01*
X171647259Y-104679997D01*
X171799646Y-105048800D01*
X172104595Y-105354282D01*
X172441083Y-105494004D01*
X172435000Y-105508691D01*
X172435000Y-106474250D01*
X172593750Y-106633000D01*
X173195000Y-106633000D01*
X173195000Y-106613000D01*
X173222560Y-106613000D01*
X173222560Y-107885000D01*
X173266838Y-108120317D01*
X173405910Y-108336441D01*
X173450999Y-108367249D01*
X173603750Y-108520000D01*
X173696310Y-108520000D01*
X173733171Y-108504732D01*
X173870000Y-108532440D01*
X174135000Y-108532440D01*
X174135000Y-109530000D01*
X174194755Y-109830407D01*
X174364921Y-110085079D01*
X174894934Y-110615092D01*
X174894821Y-110744971D01*
X175052058Y-111125515D01*
X175342954Y-111416919D01*
X175723223Y-111574820D01*
X176134971Y-111575179D01*
X176515515Y-111417942D01*
X176536710Y-111396784D01*
X176893223Y-111544820D01*
X177304971Y-111545179D01*
X177685515Y-111387942D01*
X177976919Y-111097046D01*
X178134820Y-110716777D01*
X178135179Y-110305029D01*
X177977942Y-109924485D01*
X177687046Y-109633081D01*
X177306777Y-109475180D01*
X177175223Y-109475065D01*
X176505000Y-108804842D01*
X176505000Y-108532440D01*
X176770000Y-108532440D01*
X177005317Y-108488162D01*
X177221441Y-108349090D01*
X177366431Y-108136890D01*
X177417440Y-107885000D01*
X177417440Y-107070750D01*
X178185000Y-107070750D01*
X178185000Y-108661309D01*
X178281673Y-108894698D01*
X178460301Y-109073327D01*
X178693690Y-109170000D01*
X179559250Y-109170000D01*
X179718000Y-109011250D01*
X179718000Y-106912000D01*
X179972000Y-106912000D01*
X179972000Y-109011250D01*
X180130750Y-109170000D01*
X180996310Y-109170000D01*
X181199707Y-109085750D01*
X196865000Y-109085750D01*
X196865000Y-109276309D01*
X196874813Y-109300000D01*
X196865000Y-109323691D01*
X196865000Y-109514250D01*
X197023750Y-109673000D01*
X197124974Y-109673000D01*
X197140301Y-109688327D01*
X197373690Y-109785000D01*
X197964250Y-109785000D01*
X198076250Y-109673000D01*
X198123000Y-109673000D01*
X198123000Y-108927000D01*
X198377000Y-108927000D01*
X198377000Y-109673000D01*
X198423750Y-109673000D01*
X198535750Y-109785000D01*
X199126310Y-109785000D01*
X199359699Y-109688327D01*
X199375026Y-109673000D01*
X199476250Y-109673000D01*
X199635000Y-109514250D01*
X199635000Y-109323691D01*
X199625187Y-109300000D01*
X199635000Y-109276309D01*
X199635000Y-109085750D01*
X199476250Y-108927000D01*
X199375026Y-108927000D01*
X199359699Y-108911673D01*
X199126310Y-108815000D01*
X198535750Y-108815000D01*
X198423750Y-108927000D01*
X198377000Y-108927000D01*
X198123000Y-108927000D01*
X198076250Y-108927000D01*
X197964250Y-108815000D01*
X197373690Y-108815000D01*
X197140301Y-108911673D01*
X197124974Y-108927000D01*
X197023750Y-108927000D01*
X196865000Y-109085750D01*
X181199707Y-109085750D01*
X181229699Y-109073327D01*
X181408327Y-108894698D01*
X181505000Y-108661309D01*
X181505000Y-107450000D01*
X196852560Y-107450000D01*
X196852560Y-108150000D01*
X196878919Y-108290087D01*
X196865000Y-108323691D01*
X196865000Y-108514250D01*
X197023750Y-108673000D01*
X197140640Y-108673000D01*
X197248110Y-108746431D01*
X197500000Y-108797440D01*
X199000000Y-108797440D01*
X199235317Y-108753162D01*
X199359892Y-108673000D01*
X199476250Y-108673000D01*
X199635000Y-108514250D01*
X199635000Y-108323691D01*
X199619731Y-108286829D01*
X199647440Y-108150000D01*
X199647440Y-107450000D01*
X199621081Y-107309913D01*
X199635000Y-107276309D01*
X199635000Y-107085750D01*
X199476250Y-106927000D01*
X199359360Y-106927000D01*
X199251890Y-106853569D01*
X199000000Y-106802560D01*
X197500000Y-106802560D01*
X197264683Y-106846838D01*
X197140108Y-106927000D01*
X197023750Y-106927000D01*
X196865000Y-107085750D01*
X196865000Y-107276309D01*
X196880269Y-107313171D01*
X196852560Y-107450000D01*
X181505000Y-107450000D01*
X181505000Y-107070750D01*
X181346250Y-106912000D01*
X179972000Y-106912000D01*
X179718000Y-106912000D01*
X178343750Y-106912000D01*
X178185000Y-107070750D01*
X177417440Y-107070750D01*
X177417440Y-105635000D01*
X177391439Y-105496815D01*
X177733800Y-105355354D01*
X178039282Y-105050405D01*
X178192915Y-104680417D01*
X178236235Y-104785000D01*
X178185000Y-104908691D01*
X178185000Y-106499250D01*
X178343750Y-106658000D01*
X179718000Y-106658000D01*
X179718000Y-102662000D01*
X179972000Y-102662000D01*
X179972000Y-106658000D01*
X181346250Y-106658000D01*
X181505000Y-106499250D01*
X181505000Y-106085750D01*
X196865000Y-106085750D01*
X196865000Y-106276309D01*
X196874813Y-106300000D01*
X196865000Y-106323691D01*
X196865000Y-106514250D01*
X197023750Y-106673000D01*
X197124974Y-106673000D01*
X197140301Y-106688327D01*
X197373690Y-106785000D01*
X197964250Y-106785000D01*
X198076250Y-106673000D01*
X198123000Y-106673000D01*
X198123000Y-105927000D01*
X198377000Y-105927000D01*
X198377000Y-106673000D01*
X198423750Y-106673000D01*
X198535750Y-106785000D01*
X199126310Y-106785000D01*
X199359699Y-106688327D01*
X199375026Y-106673000D01*
X199476250Y-106673000D01*
X199635000Y-106514250D01*
X199635000Y-106323691D01*
X199625187Y-106300000D01*
X199635000Y-106276309D01*
X199635000Y-106085750D01*
X199476250Y-105927000D01*
X199375026Y-105927000D01*
X199359699Y-105911673D01*
X199126310Y-105815000D01*
X198535750Y-105815000D01*
X198423750Y-105927000D01*
X198377000Y-105927000D01*
X198123000Y-105927000D01*
X198076250Y-105927000D01*
X197964250Y-105815000D01*
X197373690Y-105815000D01*
X197140301Y-105911673D01*
X197124974Y-105927000D01*
X197023750Y-105927000D01*
X196865000Y-106085750D01*
X181505000Y-106085750D01*
X181505000Y-104908691D01*
X181453765Y-104785000D01*
X181505000Y-104661309D01*
X181505000Y-103450000D01*
X196852560Y-103450000D01*
X196852560Y-104150000D01*
X196881821Y-104305507D01*
X196852560Y-104450000D01*
X196852560Y-105150000D01*
X196878919Y-105290087D01*
X196865000Y-105323691D01*
X196865000Y-105514250D01*
X197023750Y-105673000D01*
X197140640Y-105673000D01*
X197248110Y-105746431D01*
X197500000Y-105797440D01*
X199000000Y-105797440D01*
X199235317Y-105753162D01*
X199359892Y-105673000D01*
X199476250Y-105673000D01*
X199635000Y-105514250D01*
X199635000Y-105323691D01*
X199619731Y-105286829D01*
X199647440Y-105150000D01*
X199647440Y-104450000D01*
X199618179Y-104294493D01*
X199647440Y-104150000D01*
X199647440Y-104085750D01*
X205665000Y-104085750D01*
X205665000Y-104276309D01*
X205674813Y-104300000D01*
X205665000Y-104323691D01*
X205665000Y-104514250D01*
X205823750Y-104673000D01*
X205924974Y-104673000D01*
X205940301Y-104688327D01*
X206173690Y-104785000D01*
X206764250Y-104785000D01*
X206876250Y-104673000D01*
X206923000Y-104673000D01*
X206923000Y-103927000D01*
X207177000Y-103927000D01*
X207177000Y-104673000D01*
X207223750Y-104673000D01*
X207335750Y-104785000D01*
X207926310Y-104785000D01*
X208159699Y-104688327D01*
X208175026Y-104673000D01*
X208276250Y-104673000D01*
X208435000Y-104514250D01*
X208435000Y-104323691D01*
X208425187Y-104300000D01*
X208435000Y-104276309D01*
X208435000Y-104085750D01*
X208276250Y-103927000D01*
X208175026Y-103927000D01*
X208159699Y-103911673D01*
X207926310Y-103815000D01*
X207335750Y-103815000D01*
X207223750Y-103927000D01*
X207177000Y-103927000D01*
X206923000Y-103927000D01*
X206876250Y-103927000D01*
X206764250Y-103815000D01*
X206173690Y-103815000D01*
X205940301Y-103911673D01*
X205924974Y-103927000D01*
X205823750Y-103927000D01*
X205665000Y-104085750D01*
X199647440Y-104085750D01*
X199647440Y-103450000D01*
X199621081Y-103309913D01*
X199635000Y-103276309D01*
X199635000Y-103085750D01*
X205665000Y-103085750D01*
X205665000Y-103276309D01*
X205674813Y-103300000D01*
X205665000Y-103323691D01*
X205665000Y-103514250D01*
X205823750Y-103673000D01*
X205924974Y-103673000D01*
X205940301Y-103688327D01*
X206173690Y-103785000D01*
X206764250Y-103785000D01*
X206876250Y-103673000D01*
X206923000Y-103673000D01*
X206923000Y-102927000D01*
X207177000Y-102927000D01*
X207177000Y-103673000D01*
X207223750Y-103673000D01*
X207335750Y-103785000D01*
X207926310Y-103785000D01*
X208159699Y-103688327D01*
X208175026Y-103673000D01*
X208276250Y-103673000D01*
X208435000Y-103514250D01*
X208435000Y-103323691D01*
X208425187Y-103300000D01*
X208435000Y-103276309D01*
X208435000Y-103085750D01*
X208276250Y-102927000D01*
X208175026Y-102927000D01*
X208159699Y-102911673D01*
X207926310Y-102815000D01*
X207335750Y-102815000D01*
X207223750Y-102927000D01*
X207177000Y-102927000D01*
X206923000Y-102927000D01*
X206876250Y-102927000D01*
X206764250Y-102815000D01*
X206173690Y-102815000D01*
X205940301Y-102911673D01*
X205924974Y-102927000D01*
X205823750Y-102927000D01*
X205665000Y-103085750D01*
X199635000Y-103085750D01*
X199476250Y-102927000D01*
X199359360Y-102927000D01*
X199251890Y-102853569D01*
X199000000Y-102802560D01*
X197500000Y-102802560D01*
X197264683Y-102846838D01*
X197140108Y-102927000D01*
X197023750Y-102927000D01*
X196865000Y-103085750D01*
X196865000Y-103276309D01*
X196880269Y-103313171D01*
X196852560Y-103450000D01*
X181505000Y-103450000D01*
X181505000Y-102820750D01*
X181346250Y-102662000D01*
X179972000Y-102662000D01*
X179718000Y-102662000D01*
X178343750Y-102662000D01*
X178185000Y-102820750D01*
X178185000Y-104171269D01*
X178040354Y-103821200D01*
X177735405Y-103515718D01*
X177336767Y-103350189D01*
X176905127Y-103349812D01*
X176506200Y-103514646D01*
X176200718Y-103819595D01*
X176035189Y-104218233D01*
X176034812Y-104649873D01*
X176181243Y-105004261D01*
X176114493Y-105016821D01*
X175970000Y-104987560D01*
X175470000Y-104987560D01*
X175314493Y-105016821D01*
X175170000Y-104987560D01*
X174670000Y-104987560D01*
X174514493Y-105016821D01*
X174370000Y-104987560D01*
X173870000Y-104987560D01*
X173729914Y-105013919D01*
X173696310Y-105000000D01*
X173660212Y-105000000D01*
X173804811Y-104651767D01*
X173805188Y-104220127D01*
X173640354Y-103821200D01*
X173335405Y-103515718D01*
X172936767Y-103350189D01*
X172505127Y-103349812D01*
X172106200Y-103514646D01*
X171800718Y-103819595D01*
X171655000Y-104170523D01*
X171655000Y-102820750D01*
X171496250Y-102662000D01*
X170122000Y-102662000D01*
X169868000Y-102662000D01*
X168493750Y-102662000D01*
X168335000Y-102820750D01*
X167710000Y-102820750D01*
X167710000Y-102069931D01*
X167821046Y-101511662D01*
X168097669Y-101097667D01*
X168335000Y-100939087D01*
X168335000Y-102249250D01*
X168493750Y-102408000D01*
X169868000Y-102408000D01*
X169868000Y-102388000D01*
X170122000Y-102388000D01*
X170122000Y-102408000D01*
X171496250Y-102408000D01*
X171655000Y-102249250D01*
X171655000Y-100710000D01*
X178185000Y-100710000D01*
X178185000Y-102249250D01*
X178185000Y-102249250D01*
G37*
X178185000Y-102249250D02*
X178343750Y-102408000D01*
X179718000Y-102408000D01*
X179718000Y-102388000D01*
X179972000Y-102388000D01*
X179972000Y-102408000D01*
X181346250Y-102408000D01*
X181505000Y-102249250D01*
X181505000Y-101935750D01*
X196865000Y-101935750D01*
X196865000Y-102276309D01*
X196874813Y-102300000D01*
X196865000Y-102323691D01*
X196865000Y-102514250D01*
X197023750Y-102673000D01*
X197124974Y-102673000D01*
X197140301Y-102688327D01*
X197373690Y-102785000D01*
X197964250Y-102785000D01*
X198076250Y-102673000D01*
X198123000Y-102673000D01*
X198123000Y-101777000D01*
X198377000Y-101777000D01*
X198377000Y-102673000D01*
X198423750Y-102673000D01*
X198535750Y-102785000D01*
X199126310Y-102785000D01*
X199359699Y-102688327D01*
X199375026Y-102673000D01*
X199476250Y-102673000D01*
X199635000Y-102514250D01*
X199635000Y-102323691D01*
X199625187Y-102300000D01*
X199635000Y-102276309D01*
X199635000Y-101935750D01*
X205665000Y-101935750D01*
X205665000Y-102276309D01*
X205674813Y-102300000D01*
X205665000Y-102323691D01*
X205665000Y-102514250D01*
X205823750Y-102673000D01*
X205924974Y-102673000D01*
X205940301Y-102688327D01*
X206173690Y-102785000D01*
X206764250Y-102785000D01*
X206876250Y-102673000D01*
X206923000Y-102673000D01*
X206923000Y-101777000D01*
X207177000Y-101777000D01*
X207177000Y-102673000D01*
X207223750Y-102673000D01*
X207335750Y-102785000D01*
X207926310Y-102785000D01*
X208159699Y-102688327D01*
X208175026Y-102673000D01*
X208276250Y-102673000D01*
X208435000Y-102514250D01*
X208435000Y-102323691D01*
X208425187Y-102300000D01*
X208435000Y-102276309D01*
X208435000Y-101935750D01*
X208276250Y-101777000D01*
X207177000Y-101777000D01*
X206923000Y-101777000D01*
X205823750Y-101777000D01*
X205665000Y-101935750D01*
X199635000Y-101935750D01*
X199476250Y-101777000D01*
X198377000Y-101777000D01*
X198123000Y-101777000D01*
X197023750Y-101777000D01*
X196865000Y-101935750D01*
X181505000Y-101935750D01*
X181505000Y-100710000D01*
X197041975Y-100710000D01*
X196961673Y-100790302D01*
X196865000Y-101023691D01*
X196865000Y-101364250D01*
X197023750Y-101523000D01*
X198123000Y-101523000D01*
X198123000Y-101503000D01*
X198377000Y-101503000D01*
X198377000Y-101523000D01*
X199476250Y-101523000D01*
X199635000Y-101364250D01*
X199635000Y-101023691D01*
X199538327Y-100790302D01*
X199458025Y-100710000D01*
X205841975Y-100710000D01*
X205761673Y-100790302D01*
X205665000Y-101023691D01*
X205665000Y-101364250D01*
X205823750Y-101523000D01*
X206923000Y-101523000D01*
X206923000Y-101503000D01*
X207177000Y-101503000D01*
X207177000Y-101523000D01*
X208276250Y-101523000D01*
X208435000Y-101364250D01*
X208435000Y-101023691D01*
X208338327Y-100790302D01*
X208258025Y-100710000D01*
X219978315Y-100710000D01*
X219051296Y-101093037D01*
X218790466Y-101353413D01*
X218661057Y-101406883D01*
X218397808Y-101669673D01*
X218344111Y-101798989D01*
X218086425Y-102056226D01*
X217563596Y-103315337D01*
X217563178Y-103793896D01*
X217555162Y-103813201D01*
X217554838Y-104185167D01*
X217562820Y-104204485D01*
X217562406Y-104678682D01*
X218083037Y-105938704D01*
X218343413Y-106199534D01*
X218396883Y-106328943D01*
X218659673Y-106592192D01*
X218788989Y-106645889D01*
X219046226Y-106903575D01*
X220305337Y-107426404D01*
X220783896Y-107426822D01*
X220803201Y-107434838D01*
X221175167Y-107435162D01*
X221194485Y-107427180D01*
X221668682Y-107427594D01*
X222928704Y-106906963D01*
X223189534Y-106646587D01*
X223318943Y-106593117D01*
X223582192Y-106330327D01*
X223635889Y-106201011D01*
X223893575Y-105943774D01*
X224290000Y-104989077D01*
X224290000Y-132930069D01*
X224178953Y-133488340D01*
X223902333Y-133902331D01*
X223488338Y-134178954D01*
X222930069Y-134290000D01*
X219338110Y-134290000D01*
X219484794Y-133936745D01*
X219485145Y-133535000D01*
X220700000Y-133535000D01*
X221134346Y-133448603D01*
X221502566Y-133202566D01*
X223252566Y-131452566D01*
X223498604Y-131084345D01*
X223585000Y-130650000D01*
X223535000Y-130398631D01*
X223535000Y-121650000D01*
X223448603Y-121215654D01*
X223202566Y-120847434D01*
X220602566Y-118247434D01*
X220568991Y-118225000D01*
X220234346Y-118001397D01*
X219800000Y-117915000D01*
X219431538Y-117915000D01*
X219484794Y-117786745D01*
X219485206Y-117315323D01*
X219305180Y-116879628D01*
X218972125Y-116545991D01*
X218536745Y-116365206D01*
X218065323Y-116364794D01*
X217629628Y-116544820D01*
X217295991Y-116877875D01*
X217239794Y-117013214D01*
X215800790Y-115574210D01*
X215513675Y-115382367D01*
X215457484Y-115371190D01*
X215175000Y-115314999D01*
X215174995Y-115315000D01*
X211066579Y-115315000D01*
X209551580Y-113800000D01*
X210025787Y-113325792D01*
X210025790Y-113325790D01*
X210217633Y-113038675D01*
X210233102Y-112960910D01*
X210285001Y-112700000D01*
X210285000Y-112699995D01*
X210285000Y-107647440D01*
X210600000Y-107647440D01*
X210835317Y-107603162D01*
X211051441Y-107464090D01*
X211196431Y-107251890D01*
X211247440Y-107000000D01*
X211247440Y-106200000D01*
X211203162Y-105964683D01*
X211097518Y-105800507D01*
X211138327Y-105759698D01*
X211235000Y-105526309D01*
X211235000Y-105285750D01*
X211076250Y-105127000D01*
X210327000Y-105127000D01*
X210327000Y-105147000D01*
X210073000Y-105147000D01*
X210073000Y-105127000D01*
X210053000Y-105127000D01*
X210053000Y-104873000D01*
X210073000Y-104873000D01*
X210073000Y-104123750D01*
X210327000Y-104123750D01*
X210327000Y-104873000D01*
X211076250Y-104873000D01*
X211235000Y-104714250D01*
X211235000Y-104473691D01*
X211138327Y-104240302D01*
X210959699Y-104061673D01*
X210726310Y-103965000D01*
X210485750Y-103965000D01*
X210327000Y-104123750D01*
X210073000Y-104123750D01*
X209914250Y-103965000D01*
X209673690Y-103965000D01*
X209440301Y-104061673D01*
X209261673Y-104240302D01*
X209165000Y-104473691D01*
X209165000Y-104714250D01*
X209323748Y-104872998D01*
X209165000Y-104872998D01*
X209165000Y-104915000D01*
X208141797Y-104915000D01*
X208051890Y-104853569D01*
X207800000Y-104802560D01*
X206300000Y-104802560D01*
X206064683Y-104846838D01*
X205940108Y-104927000D01*
X205823750Y-104927000D01*
X205665000Y-105085750D01*
X205665000Y-105276309D01*
X205680269Y-105313171D01*
X205652560Y-105450000D01*
X205652560Y-106150000D01*
X205681821Y-106305507D01*
X205652560Y-106450000D01*
X205652560Y-107150000D01*
X205681821Y-107305507D01*
X205652560Y-107450000D01*
X205652560Y-108150000D01*
X205681821Y-108305507D01*
X205652560Y-108450000D01*
X205652560Y-109150000D01*
X205678919Y-109290087D01*
X205665000Y-109323691D01*
X205665000Y-109514250D01*
X205823750Y-109673000D01*
X205940640Y-109673000D01*
X206048110Y-109746431D01*
X206300000Y-109797440D01*
X207800000Y-109797440D01*
X208035317Y-109753162D01*
X208159892Y-109673000D01*
X208276250Y-109673000D01*
X208435000Y-109514250D01*
X208435000Y-109323691D01*
X208419731Y-109286829D01*
X208447440Y-109150000D01*
X208447440Y-108450000D01*
X208418179Y-108294493D01*
X208447440Y-108150000D01*
X208447440Y-107685000D01*
X208515000Y-107685000D01*
X208515000Y-112333421D01*
X208439677Y-112408744D01*
X208418179Y-112294493D01*
X208447440Y-112150000D01*
X208447440Y-111450000D01*
X208421081Y-111309913D01*
X208435000Y-111276309D01*
X208435000Y-111085750D01*
X208276250Y-110927000D01*
X208159360Y-110927000D01*
X208051890Y-110853569D01*
X207800000Y-110802560D01*
X206300000Y-110802560D01*
X206064683Y-110846838D01*
X205940108Y-110927000D01*
X205823750Y-110927000D01*
X205665000Y-111085750D01*
X205665000Y-111276309D01*
X205680269Y-111313171D01*
X205652560Y-111450000D01*
X205652560Y-112150000D01*
X205681821Y-112305507D01*
X205652560Y-112450000D01*
X205652560Y-113150000D01*
X205681821Y-113305507D01*
X205652560Y-113450000D01*
X205652560Y-114150000D01*
X205696838Y-114385317D01*
X205835910Y-114601441D01*
X206048110Y-114746431D01*
X206300000Y-114797440D01*
X207800000Y-114797440D01*
X208006925Y-114758504D01*
X209363421Y-116115000D01*
X203818927Y-116115000D01*
X203797046Y-116093081D01*
X203420870Y-115936880D01*
X203344417Y-115751848D01*
X203162478Y-115569591D01*
X203300000Y-115597440D01*
X204000000Y-115597440D01*
X204140086Y-115571081D01*
X204173690Y-115585000D01*
X204364250Y-115585000D01*
X204523000Y-115426250D01*
X204523000Y-115309360D01*
X204596431Y-115201890D01*
X204647440Y-114950000D01*
X204647440Y-114327000D01*
X204777000Y-114327000D01*
X204777000Y-115426250D01*
X204935750Y-115585000D01*
X205126310Y-115585000D01*
X205359699Y-115488327D01*
X205538327Y-115309698D01*
X205635000Y-115076309D01*
X205635000Y-114485750D01*
X205476250Y-114327000D01*
X204777000Y-114327000D01*
X204647440Y-114327000D01*
X204647440Y-113450000D01*
X204603162Y-113214683D01*
X204523000Y-113090108D01*
X204523000Y-112973750D01*
X204777000Y-112973750D01*
X204777000Y-114073000D01*
X205476250Y-114073000D01*
X205635000Y-113914250D01*
X205635000Y-113323691D01*
X205538327Y-113090302D01*
X205359699Y-112911673D01*
X205126310Y-112815000D01*
X204935750Y-112815000D01*
X204777000Y-112973750D01*
X204523000Y-112973750D01*
X204364250Y-112815000D01*
X204173690Y-112815000D01*
X204136829Y-112830268D01*
X204000000Y-112802560D01*
X203300000Y-112802560D01*
X203144493Y-112831821D01*
X203000000Y-112802560D01*
X202300000Y-112802560D01*
X202144493Y-112831821D01*
X202000000Y-112802560D01*
X201300000Y-112802560D01*
X201159914Y-112828919D01*
X201126310Y-112815000D01*
X200935750Y-112815000D01*
X200777000Y-112973750D01*
X200777000Y-113090640D01*
X200703569Y-113198110D01*
X200652560Y-113450000D01*
X200652560Y-114347000D01*
X200523000Y-114347000D01*
X200523000Y-114327000D01*
X199823750Y-114327000D01*
X199665000Y-114485750D01*
X199665000Y-114851371D01*
X196607356Y-114851371D01*
X196626441Y-114839090D01*
X196731726Y-114685000D01*
X197158203Y-114685000D01*
X197248110Y-114746431D01*
X197500000Y-114797440D01*
X199000000Y-114797440D01*
X199235317Y-114753162D01*
X199451441Y-114614090D01*
X199596431Y-114401890D01*
X199647440Y-114150000D01*
X199647440Y-113450000D01*
X199623674Y-113323691D01*
X199665000Y-113323691D01*
X199665000Y-113914250D01*
X199823750Y-114073000D01*
X200523000Y-114073000D01*
X200523000Y-112973750D01*
X200364250Y-112815000D01*
X200173690Y-112815000D01*
X199940301Y-112911673D01*
X199761673Y-113090302D01*
X199665000Y-113323691D01*
X199623674Y-113323691D01*
X199618179Y-113294493D01*
X199647440Y-113150000D01*
X199647440Y-112450000D01*
X199618179Y-112294493D01*
X199647440Y-112150000D01*
X199647440Y-111450000D01*
X199618179Y-111294493D01*
X199647440Y-111150000D01*
X199647440Y-110450000D01*
X199621081Y-110309913D01*
X199635000Y-110276309D01*
X199635000Y-110085750D01*
X205665000Y-110085750D01*
X205665000Y-110276309D01*
X205674813Y-110300000D01*
X205665000Y-110323691D01*
X205665000Y-110514250D01*
X205823750Y-110673000D01*
X205924974Y-110673000D01*
X205940301Y-110688327D01*
X206173690Y-110785000D01*
X206764250Y-110785000D01*
X206876250Y-110673000D01*
X206923000Y-110673000D01*
X206923000Y-109927000D01*
X207177000Y-109927000D01*
X207177000Y-110673000D01*
X207223750Y-110673000D01*
X207335750Y-110785000D01*
X207926310Y-110785000D01*
X208159699Y-110688327D01*
X208175026Y-110673000D01*
X208276250Y-110673000D01*
X208435000Y-110514250D01*
X208435000Y-110323691D01*
X208425187Y-110300000D01*
X208435000Y-110276309D01*
X208435000Y-110085750D01*
X208276250Y-109927000D01*
X208175026Y-109927000D01*
X208159699Y-109911673D01*
X207926310Y-109815000D01*
X207335750Y-109815000D01*
X207223750Y-109927000D01*
X207177000Y-109927000D01*
X206923000Y-109927000D01*
X206876250Y-109927000D01*
X206764250Y-109815000D01*
X206173690Y-109815000D01*
X205940301Y-109911673D01*
X205924974Y-109927000D01*
X205823750Y-109927000D01*
X205665000Y-110085750D01*
X199635000Y-110085750D01*
X199476250Y-109927000D01*
X199359360Y-109927000D01*
X199251890Y-109853569D01*
X199000000Y-109802560D01*
X197500000Y-109802560D01*
X197264683Y-109846838D01*
X197140108Y-109927000D01*
X197023750Y-109927000D01*
X196865000Y-110085750D01*
X196865000Y-110276309D01*
X196880269Y-110313171D01*
X196852560Y-110450000D01*
X196852560Y-111150000D01*
X196881821Y-111305507D01*
X196852560Y-111450000D01*
X196852560Y-111915000D01*
X196801742Y-111915000D01*
X196778162Y-111789683D01*
X196639090Y-111573559D01*
X196426890Y-111428569D01*
X196175000Y-111377560D01*
X195475000Y-111377560D01*
X195239683Y-111421838D01*
X195099273Y-111512190D01*
X194976890Y-111428569D01*
X194725000Y-111377560D01*
X194025000Y-111377560D01*
X193789683Y-111421838D01*
X193573559Y-111560910D01*
X193428569Y-111773110D01*
X193428389Y-111774000D01*
X193424594Y-111774755D01*
X193169921Y-111944921D01*
X193044921Y-112069921D01*
X192874755Y-112324593D01*
X192826998Y-112564683D01*
X192815000Y-112625000D01*
X192815000Y-114500000D01*
X192859756Y-114725000D01*
X192633690Y-114725000D01*
X192463787Y-114795376D01*
X192366310Y-114755000D01*
X192125750Y-114755000D01*
X191967000Y-114913750D01*
X191967000Y-115663000D01*
X192716250Y-115663000D01*
X192746250Y-115633000D01*
X193033000Y-115633000D01*
X193033000Y-115613000D01*
X193287000Y-115613000D01*
X193287000Y-115633000D01*
X193307000Y-115633000D01*
X193307000Y-115887000D01*
X193287000Y-115887000D01*
X193287000Y-115907000D01*
X193033000Y-115907000D01*
X193033000Y-115887000D01*
X192283750Y-115887000D01*
X192253750Y-115917000D01*
X191967000Y-115917000D01*
X191967000Y-115937000D01*
X191713000Y-115937000D01*
X191713000Y-115917000D01*
X190963750Y-115917000D01*
X190805000Y-116075750D01*
X190805000Y-116316309D01*
X190883158Y-116505000D01*
X188402675Y-116505000D01*
X188306777Y-116465180D01*
X187895029Y-116464821D01*
X187514485Y-116622058D01*
X187223081Y-116912954D01*
X187065180Y-117293223D01*
X187064821Y-117704971D01*
X187222058Y-118085515D01*
X187512954Y-118376919D01*
X187765033Y-118481591D01*
X187764821Y-118724971D01*
X187922058Y-119105515D01*
X188107507Y-119291288D01*
X188106007Y-119294900D01*
X188015029Y-119294821D01*
X187634485Y-119452058D01*
X187343081Y-119742954D01*
X187185180Y-120123223D01*
X187184821Y-120534971D01*
X187341633Y-120914487D01*
X187293081Y-120962954D01*
X187135180Y-121343223D01*
X187134821Y-121754971D01*
X187273864Y-122091482D01*
X187165180Y-122353223D01*
X187164821Y-122764971D01*
X187322058Y-123145515D01*
X187354409Y-123177922D01*
X187215180Y-123513223D01*
X187214821Y-123924971D01*
X187372058Y-124305515D01*
X187662954Y-124596919D01*
X188043223Y-124754820D01*
X188454971Y-124755179D01*
X188835515Y-124597942D01*
X189126919Y-124307046D01*
X189260644Y-123985000D01*
X190115000Y-123985000D01*
X190115000Y-124064250D01*
X190273750Y-124223000D01*
X191023000Y-124223000D01*
X191023000Y-124203000D01*
X191277000Y-124203000D01*
X191277000Y-124223000D01*
X191297000Y-124223000D01*
X191297000Y-124477000D01*
X191277000Y-124477000D01*
X191277000Y-124497000D01*
X191023000Y-124497000D01*
X191023000Y-124477000D01*
X190273750Y-124477000D01*
X190115000Y-124635750D01*
X190115000Y-124876309D01*
X190211673Y-125109698D01*
X190253634Y-125151660D01*
X190153569Y-125298110D01*
X190102560Y-125550000D01*
X190102560Y-126350000D01*
X190133577Y-126514843D01*
X188833420Y-127815000D01*
X188467585Y-127815000D01*
X188106777Y-127665180D01*
X187695029Y-127664821D01*
X187314485Y-127822058D01*
X187023081Y-128112954D01*
X186865180Y-128493223D01*
X186864821Y-128904971D01*
X187022058Y-129285515D01*
X187312954Y-129576919D01*
X187693223Y-129734820D01*
X188104971Y-129735179D01*
X188315000Y-129648397D01*
X188315000Y-132774995D01*
X188314999Y-132775000D01*
X188360042Y-133001441D01*
X188382367Y-133113675D01*
X188530463Y-133335317D01*
X188574210Y-133400790D01*
X188649208Y-133475787D01*
X188649210Y-133475790D01*
X188936325Y-133667633D01*
X188992516Y-133678810D01*
X189275000Y-133735001D01*
X189275005Y-133735000D01*
X190308420Y-133735000D01*
X190863421Y-134290000D01*
X186492703Y-134290000D01*
X186539353Y-134143958D01*
X185675000Y-133279605D01*
X185660858Y-133293748D01*
X185481253Y-133114143D01*
X185495395Y-133100000D01*
X185854605Y-133100000D01*
X186718958Y-133964353D01*
X186970259Y-133884080D01*
X187171718Y-133328721D01*
X187145315Y-132738542D01*
X186970259Y-132315920D01*
X186718958Y-132235647D01*
X185854605Y-133100000D01*
X185495395Y-133100000D01*
X185481253Y-133085858D01*
X185660858Y-132906253D01*
X185675000Y-132920395D01*
X186539353Y-132056042D01*
X186459080Y-131804741D01*
X185903721Y-131603282D01*
X185313542Y-131629685D01*
X184890920Y-131804741D01*
X184810648Y-132056040D01*
X184695938Y-131941330D01*
X184656248Y-131981020D01*
X184517283Y-131841812D01*
X184460000Y-131818026D01*
X184460000Y-127094473D01*
X185002853Y-126551620D01*
X185203223Y-126634820D01*
X185614971Y-126635179D01*
X185995515Y-126477942D01*
X186286919Y-126187046D01*
X186444820Y-125806777D01*
X186445179Y-125395029D01*
X186287942Y-125014485D01*
X186029039Y-124755130D01*
X186084971Y-124755179D01*
X186465515Y-124597942D01*
X186756919Y-124307046D01*
X186914820Y-123926777D01*
X186915179Y-123515029D01*
X186757942Y-123134485D01*
X186705602Y-123082053D01*
X186844820Y-122746777D01*
X186845179Y-122335029D01*
X186687942Y-121954485D01*
X186557135Y-121823450D01*
X186584820Y-121756777D01*
X186585179Y-121345029D01*
X186427942Y-120964485D01*
X186137046Y-120673081D01*
X185756777Y-120515180D01*
X185345029Y-120514821D01*
X185295460Y-120535303D01*
X183545066Y-118784908D01*
X183545179Y-118655029D01*
X183433606Y-118385000D01*
X185132415Y-118385000D01*
X185493223Y-118534820D01*
X185904971Y-118535179D01*
X186285515Y-118377942D01*
X186576919Y-118087046D01*
X186734820Y-117706777D01*
X186735179Y-117295029D01*
X186577942Y-116914485D01*
X186287046Y-116623081D01*
X185906777Y-116465180D01*
X185495029Y-116464821D01*
X185131567Y-116615000D01*
X182300000Y-116615000D01*
X181961325Y-116682367D01*
X181674210Y-116874210D01*
X181674208Y-116874213D01*
X181305552Y-117242869D01*
X180944485Y-117392058D01*
X180823245Y-117513087D01*
X179885000Y-116574842D01*
X179885000Y-115263691D01*
X190805000Y-115263691D01*
X190805000Y-115504250D01*
X190963750Y-115663000D01*
X191713000Y-115663000D01*
X191713000Y-114913750D01*
X191554250Y-114755000D01*
X191313690Y-114755000D01*
X191080301Y-114851673D01*
X190901673Y-115030302D01*
X190805000Y-115263691D01*
X179885000Y-115263691D01*
X179885000Y-113778805D01*
X179976919Y-113687046D01*
X180134820Y-113306777D01*
X180135179Y-112895029D01*
X179977942Y-112514485D01*
X179687046Y-112223081D01*
X179306777Y-112065180D01*
X178895029Y-112064821D01*
X178564924Y-112201217D01*
X178417046Y-112053081D01*
X178036777Y-111895180D01*
X177625029Y-111894821D01*
X177244485Y-112052058D01*
X176953081Y-112342954D01*
X176795180Y-112723223D01*
X176794821Y-113134971D01*
X176851913Y-113273144D01*
X176471681Y-113115258D01*
X175880911Y-113114743D01*
X175334914Y-113340344D01*
X174916812Y-113757717D01*
X174690258Y-114303319D01*
X174689743Y-114894089D01*
X174915344Y-115440086D01*
X175056140Y-115581128D01*
X175016330Y-115620938D01*
X175131040Y-115735648D01*
X174879741Y-115815920D01*
X174678282Y-116371279D01*
X174704685Y-116961458D01*
X174879741Y-117384080D01*
X175131042Y-117464353D01*
X175995395Y-116600000D01*
X175981253Y-116585858D01*
X176160858Y-116406253D01*
X176175000Y-116420395D01*
X176189143Y-116406253D01*
X176368748Y-116585858D01*
X176354605Y-116600000D01*
X177218958Y-117464353D01*
X177470259Y-117384080D01*
X177515000Y-117260743D01*
X177515000Y-117400000D01*
X177574755Y-117700407D01*
X177744921Y-117955079D01*
X180763061Y-120973219D01*
X180623081Y-121112954D01*
X180472268Y-121476153D01*
X175374209Y-126574211D01*
X175182366Y-126861326D01*
X175182366Y-126861327D01*
X175114998Y-127200001D01*
X175114999Y-127200006D01*
X175114999Y-127821846D01*
X175114485Y-127822058D01*
X174934825Y-128001405D01*
X174935179Y-127595029D01*
X174777942Y-127214485D01*
X174487046Y-126923081D01*
X174123848Y-126772268D01*
X173747440Y-126395860D01*
X173747440Y-126100000D01*
X173703162Y-125864683D01*
X173597518Y-125700507D01*
X173638327Y-125659698D01*
X173735000Y-125426309D01*
X173735000Y-125185750D01*
X173576250Y-125027000D01*
X172827000Y-125027000D01*
X172827000Y-125047000D01*
X172573000Y-125047000D01*
X172573000Y-125027000D01*
X171823750Y-125027000D01*
X171665000Y-125185750D01*
X171665000Y-125426309D01*
X171761673Y-125659698D01*
X171803634Y-125701660D01*
X171703569Y-125848110D01*
X171652560Y-126100000D01*
X171652560Y-126900000D01*
X171696838Y-127135317D01*
X171835910Y-127351441D01*
X172048110Y-127496431D01*
X172300000Y-127547440D01*
X172395860Y-127547440D01*
X172872869Y-128024448D01*
X172894083Y-128075792D01*
X171684663Y-127573596D01*
X171206104Y-127573178D01*
X171186799Y-127565162D01*
X170814833Y-127564838D01*
X170795515Y-127572820D01*
X170321318Y-127572406D01*
X169061296Y-128093037D01*
X168800466Y-128353413D01*
X168671057Y-128406883D01*
X168407808Y-128669673D01*
X168354111Y-128798989D01*
X168096425Y-129056226D01*
X167710000Y-129986840D01*
X167710000Y-124373691D01*
X171665000Y-124373691D01*
X171665000Y-124614250D01*
X171823750Y-124773000D01*
X172573000Y-124773000D01*
X172573000Y-124023750D01*
X172827000Y-124023750D01*
X172827000Y-124773000D01*
X173576250Y-124773000D01*
X173735000Y-124614250D01*
X173735000Y-124373691D01*
X173638327Y-124140302D01*
X173459699Y-123961673D01*
X173226310Y-123865000D01*
X172985750Y-123865000D01*
X172827000Y-124023750D01*
X172573000Y-124023750D01*
X172414250Y-123865000D01*
X172173690Y-123865000D01*
X171940301Y-123961673D01*
X171761673Y-124140302D01*
X171665000Y-124373691D01*
X167710000Y-124373691D01*
X167710000Y-123823000D01*
X169414250Y-123823000D01*
X169573000Y-123664250D01*
X169573000Y-122108500D01*
X169827000Y-122108500D01*
X169827000Y-123664250D01*
X169985750Y-123823000D01*
X172366310Y-123823000D01*
X172599699Y-123726327D01*
X172778327Y-123547698D01*
X172875000Y-123314309D01*
X172875000Y-122267250D01*
X172716250Y-122108500D01*
X169827000Y-122108500D01*
X169573000Y-122108500D01*
X169553000Y-122108500D01*
X169553000Y-121854500D01*
X169573000Y-121854500D01*
X169573000Y-120298750D01*
X169827000Y-120298750D01*
X169827000Y-121854500D01*
X172716250Y-121854500D01*
X172875000Y-121695750D01*
X172875000Y-120648691D01*
X172778327Y-120415302D01*
X172599699Y-120236673D01*
X172366310Y-120140000D01*
X169985750Y-120140000D01*
X169827000Y-120298750D01*
X169573000Y-120298750D01*
X169414250Y-120140000D01*
X167710000Y-120140000D01*
X167710000Y-117643958D01*
X175310647Y-117643958D01*
X175390920Y-117895259D01*
X175946279Y-118096718D01*
X176536458Y-118070315D01*
X176959080Y-117895259D01*
X177039353Y-117643958D01*
X176175000Y-116779605D01*
X175310647Y-117643958D01*
X167710000Y-117643958D01*
X167710000Y-115060000D01*
X169414250Y-115060000D01*
X169573000Y-114901250D01*
X169573000Y-113345500D01*
X169553000Y-113345500D01*
X169553000Y-113091500D01*
X169573000Y-113091500D01*
X169573000Y-111535750D01*
X169827000Y-111535750D01*
X169827000Y-113091500D01*
X169847000Y-113091500D01*
X169847000Y-113345500D01*
X169827000Y-113345500D01*
X169827000Y-114901250D01*
X169985750Y-115060000D01*
X172366310Y-115060000D01*
X172599699Y-114963327D01*
X172778327Y-114784698D01*
X172790759Y-114754685D01*
X172812954Y-114776919D01*
X173193223Y-114934820D01*
X173604971Y-114935179D01*
X173985515Y-114777942D01*
X174276919Y-114487046D01*
X174434820Y-114106777D01*
X174435179Y-113695029D01*
X174297440Y-113361674D01*
X174297440Y-112800000D01*
X174253162Y-112564683D01*
X174237661Y-112540594D01*
X174285000Y-112426309D01*
X174285000Y-112285750D01*
X174126250Y-112127000D01*
X173525000Y-112127000D01*
X173525000Y-112147000D01*
X173275000Y-112147000D01*
X173275000Y-112127000D01*
X173253000Y-112127000D01*
X173253000Y-111873000D01*
X173275000Y-111873000D01*
X173275000Y-111223750D01*
X173525000Y-111223750D01*
X173525000Y-111873000D01*
X174126250Y-111873000D01*
X174285000Y-111714250D01*
X174285000Y-111573691D01*
X174188327Y-111340302D01*
X174009699Y-111161673D01*
X173776310Y-111065000D01*
X173683750Y-111065000D01*
X173525000Y-111223750D01*
X173275000Y-111223750D01*
X173116250Y-111065000D01*
X173023690Y-111065000D01*
X172790301Y-111161673D01*
X172611673Y-111340302D01*
X172562766Y-111458375D01*
X172366310Y-111377000D01*
X169985750Y-111377000D01*
X169827000Y-111535750D01*
X169573000Y-111535750D01*
X169414250Y-111377000D01*
X167710000Y-111377000D01*
X167710000Y-107070750D01*
X168335000Y-107070750D01*
X168335000Y-108661309D01*
X168431673Y-108894698D01*
X168610301Y-109073327D01*
X168843690Y-109170000D01*
X169709250Y-109170000D01*
X169868000Y-109011250D01*
X169868000Y-106912000D01*
X170122000Y-106912000D01*
X170122000Y-109011250D01*
X170280750Y-109170000D01*
X171146310Y-109170000D01*
X171379699Y-109073327D01*
X171558327Y-108894698D01*
X171655000Y-108661309D01*
X171655000Y-107070750D01*
X171630000Y-107045750D01*
X172435000Y-107045750D01*
X172435000Y-108011309D01*
X172531673Y-108244698D01*
X172710301Y-108423327D01*
X172943690Y-108520000D01*
X173036250Y-108520000D01*
X173195000Y-108361250D01*
X173195000Y-106887000D01*
X172593750Y-106887000D01*
X172435000Y-107045750D01*
X171630000Y-107045750D01*
X171496250Y-106912000D01*
X170122000Y-106912000D01*
X169868000Y-106912000D01*
X168493750Y-106912000D01*
X168335000Y-107070750D01*
X167710000Y-107070750D01*
X167710000Y-102820750D01*
X168335000Y-102820750D01*
X168335000Y-104661309D01*
X168386235Y-104785000D01*
X168335000Y-104908691D01*
X168335000Y-106499250D01*
X168493750Y-106658000D01*
X169868000Y-106658000D01*
X169868000Y-102662000D01*
X170122000Y-102662000D01*
X170122000Y-106658000D01*
X171496250Y-106658000D01*
X171655000Y-106499250D01*
X171655000Y-104908691D01*
X171603765Y-104785000D01*
X171647259Y-104679997D01*
X171799646Y-105048800D01*
X172104595Y-105354282D01*
X172441083Y-105494004D01*
X172435000Y-105508691D01*
X172435000Y-106474250D01*
X172593750Y-106633000D01*
X173195000Y-106633000D01*
X173195000Y-106613000D01*
X173222560Y-106613000D01*
X173222560Y-107885000D01*
X173266838Y-108120317D01*
X173405910Y-108336441D01*
X173450999Y-108367249D01*
X173603750Y-108520000D01*
X173696310Y-108520000D01*
X173733171Y-108504732D01*
X173870000Y-108532440D01*
X174135000Y-108532440D01*
X174135000Y-109530000D01*
X174194755Y-109830407D01*
X174364921Y-110085079D01*
X174894934Y-110615092D01*
X174894821Y-110744971D01*
X175052058Y-111125515D01*
X175342954Y-111416919D01*
X175723223Y-111574820D01*
X176134971Y-111575179D01*
X176515515Y-111417942D01*
X176536710Y-111396784D01*
X176893223Y-111544820D01*
X177304971Y-111545179D01*
X177685515Y-111387942D01*
X177976919Y-111097046D01*
X178134820Y-110716777D01*
X178135179Y-110305029D01*
X177977942Y-109924485D01*
X177687046Y-109633081D01*
X177306777Y-109475180D01*
X177175223Y-109475065D01*
X176505000Y-108804842D01*
X176505000Y-108532440D01*
X176770000Y-108532440D01*
X177005317Y-108488162D01*
X177221441Y-108349090D01*
X177366431Y-108136890D01*
X177417440Y-107885000D01*
X177417440Y-107070750D01*
X178185000Y-107070750D01*
X178185000Y-108661309D01*
X178281673Y-108894698D01*
X178460301Y-109073327D01*
X178693690Y-109170000D01*
X179559250Y-109170000D01*
X179718000Y-109011250D01*
X179718000Y-106912000D01*
X179972000Y-106912000D01*
X179972000Y-109011250D01*
X180130750Y-109170000D01*
X180996310Y-109170000D01*
X181199707Y-109085750D01*
X196865000Y-109085750D01*
X196865000Y-109276309D01*
X196874813Y-109300000D01*
X196865000Y-109323691D01*
X196865000Y-109514250D01*
X197023750Y-109673000D01*
X197124974Y-109673000D01*
X197140301Y-109688327D01*
X197373690Y-109785000D01*
X197964250Y-109785000D01*
X198076250Y-109673000D01*
X198123000Y-109673000D01*
X198123000Y-108927000D01*
X198377000Y-108927000D01*
X198377000Y-109673000D01*
X198423750Y-109673000D01*
X198535750Y-109785000D01*
X199126310Y-109785000D01*
X199359699Y-109688327D01*
X199375026Y-109673000D01*
X199476250Y-109673000D01*
X199635000Y-109514250D01*
X199635000Y-109323691D01*
X199625187Y-109300000D01*
X199635000Y-109276309D01*
X199635000Y-109085750D01*
X199476250Y-108927000D01*
X199375026Y-108927000D01*
X199359699Y-108911673D01*
X199126310Y-108815000D01*
X198535750Y-108815000D01*
X198423750Y-108927000D01*
X198377000Y-108927000D01*
X198123000Y-108927000D01*
X198076250Y-108927000D01*
X197964250Y-108815000D01*
X197373690Y-108815000D01*
X197140301Y-108911673D01*
X197124974Y-108927000D01*
X197023750Y-108927000D01*
X196865000Y-109085750D01*
X181199707Y-109085750D01*
X181229699Y-109073327D01*
X181408327Y-108894698D01*
X181505000Y-108661309D01*
X181505000Y-107450000D01*
X196852560Y-107450000D01*
X196852560Y-108150000D01*
X196878919Y-108290087D01*
X196865000Y-108323691D01*
X196865000Y-108514250D01*
X197023750Y-108673000D01*
X197140640Y-108673000D01*
X197248110Y-108746431D01*
X197500000Y-108797440D01*
X199000000Y-108797440D01*
X199235317Y-108753162D01*
X199359892Y-108673000D01*
X199476250Y-108673000D01*
X199635000Y-108514250D01*
X199635000Y-108323691D01*
X199619731Y-108286829D01*
X199647440Y-108150000D01*
X199647440Y-107450000D01*
X199621081Y-107309913D01*
X199635000Y-107276309D01*
X199635000Y-107085750D01*
X199476250Y-106927000D01*
X199359360Y-106927000D01*
X199251890Y-106853569D01*
X199000000Y-106802560D01*
X197500000Y-106802560D01*
X197264683Y-106846838D01*
X197140108Y-106927000D01*
X197023750Y-106927000D01*
X196865000Y-107085750D01*
X196865000Y-107276309D01*
X196880269Y-107313171D01*
X196852560Y-107450000D01*
X181505000Y-107450000D01*
X181505000Y-107070750D01*
X181346250Y-106912000D01*
X179972000Y-106912000D01*
X179718000Y-106912000D01*
X178343750Y-106912000D01*
X178185000Y-107070750D01*
X177417440Y-107070750D01*
X177417440Y-105635000D01*
X177391439Y-105496815D01*
X177733800Y-105355354D01*
X178039282Y-105050405D01*
X178192915Y-104680417D01*
X178236235Y-104785000D01*
X178185000Y-104908691D01*
X178185000Y-106499250D01*
X178343750Y-106658000D01*
X179718000Y-106658000D01*
X179718000Y-102662000D01*
X179972000Y-102662000D01*
X179972000Y-106658000D01*
X181346250Y-106658000D01*
X181505000Y-106499250D01*
X181505000Y-106085750D01*
X196865000Y-106085750D01*
X196865000Y-106276309D01*
X196874813Y-106300000D01*
X196865000Y-106323691D01*
X196865000Y-106514250D01*
X197023750Y-106673000D01*
X197124974Y-106673000D01*
X197140301Y-106688327D01*
X197373690Y-106785000D01*
X197964250Y-106785000D01*
X198076250Y-106673000D01*
X198123000Y-106673000D01*
X198123000Y-105927000D01*
X198377000Y-105927000D01*
X198377000Y-106673000D01*
X198423750Y-106673000D01*
X198535750Y-106785000D01*
X199126310Y-106785000D01*
X199359699Y-106688327D01*
X199375026Y-106673000D01*
X199476250Y-106673000D01*
X199635000Y-106514250D01*
X199635000Y-106323691D01*
X199625187Y-106300000D01*
X199635000Y-106276309D01*
X199635000Y-106085750D01*
X199476250Y-105927000D01*
X199375026Y-105927000D01*
X199359699Y-105911673D01*
X199126310Y-105815000D01*
X198535750Y-105815000D01*
X198423750Y-105927000D01*
X198377000Y-105927000D01*
X198123000Y-105927000D01*
X198076250Y-105927000D01*
X197964250Y-105815000D01*
X197373690Y-105815000D01*
X197140301Y-105911673D01*
X197124974Y-105927000D01*
X197023750Y-105927000D01*
X196865000Y-106085750D01*
X181505000Y-106085750D01*
X181505000Y-104908691D01*
X181453765Y-104785000D01*
X181505000Y-104661309D01*
X181505000Y-103450000D01*
X196852560Y-103450000D01*
X196852560Y-104150000D01*
X196881821Y-104305507D01*
X196852560Y-104450000D01*
X196852560Y-105150000D01*
X196878919Y-105290087D01*
X196865000Y-105323691D01*
X196865000Y-105514250D01*
X197023750Y-105673000D01*
X197140640Y-105673000D01*
X197248110Y-105746431D01*
X197500000Y-105797440D01*
X199000000Y-105797440D01*
X199235317Y-105753162D01*
X199359892Y-105673000D01*
X199476250Y-105673000D01*
X199635000Y-105514250D01*
X199635000Y-105323691D01*
X199619731Y-105286829D01*
X199647440Y-105150000D01*
X199647440Y-104450000D01*
X199618179Y-104294493D01*
X199647440Y-104150000D01*
X199647440Y-104085750D01*
X205665000Y-104085750D01*
X205665000Y-104276309D01*
X205674813Y-104300000D01*
X205665000Y-104323691D01*
X205665000Y-104514250D01*
X205823750Y-104673000D01*
X205924974Y-104673000D01*
X205940301Y-104688327D01*
X206173690Y-104785000D01*
X206764250Y-104785000D01*
X206876250Y-104673000D01*
X206923000Y-104673000D01*
X206923000Y-103927000D01*
X207177000Y-103927000D01*
X207177000Y-104673000D01*
X207223750Y-104673000D01*
X207335750Y-104785000D01*
X207926310Y-104785000D01*
X208159699Y-104688327D01*
X208175026Y-104673000D01*
X208276250Y-104673000D01*
X208435000Y-104514250D01*
X208435000Y-104323691D01*
X208425187Y-104300000D01*
X208435000Y-104276309D01*
X208435000Y-104085750D01*
X208276250Y-103927000D01*
X208175026Y-103927000D01*
X208159699Y-103911673D01*
X207926310Y-103815000D01*
X207335750Y-103815000D01*
X207223750Y-103927000D01*
X207177000Y-103927000D01*
X206923000Y-103927000D01*
X206876250Y-103927000D01*
X206764250Y-103815000D01*
X206173690Y-103815000D01*
X205940301Y-103911673D01*
X205924974Y-103927000D01*
X205823750Y-103927000D01*
X205665000Y-104085750D01*
X199647440Y-104085750D01*
X199647440Y-103450000D01*
X199621081Y-103309913D01*
X199635000Y-103276309D01*
X199635000Y-103085750D01*
X205665000Y-103085750D01*
X205665000Y-103276309D01*
X205674813Y-103300000D01*
X205665000Y-103323691D01*
X205665000Y-103514250D01*
X205823750Y-103673000D01*
X205924974Y-103673000D01*
X205940301Y-103688327D01*
X206173690Y-103785000D01*
X206764250Y-103785000D01*
X206876250Y-103673000D01*
X206923000Y-103673000D01*
X206923000Y-102927000D01*
X207177000Y-102927000D01*
X207177000Y-103673000D01*
X207223750Y-103673000D01*
X207335750Y-103785000D01*
X207926310Y-103785000D01*
X208159699Y-103688327D01*
X208175026Y-103673000D01*
X208276250Y-103673000D01*
X208435000Y-103514250D01*
X208435000Y-103323691D01*
X208425187Y-103300000D01*
X208435000Y-103276309D01*
X208435000Y-103085750D01*
X208276250Y-102927000D01*
X208175026Y-102927000D01*
X208159699Y-102911673D01*
X207926310Y-102815000D01*
X207335750Y-102815000D01*
X207223750Y-102927000D01*
X207177000Y-102927000D01*
X206923000Y-102927000D01*
X206876250Y-102927000D01*
X206764250Y-102815000D01*
X206173690Y-102815000D01*
X205940301Y-102911673D01*
X205924974Y-102927000D01*
X205823750Y-102927000D01*
X205665000Y-103085750D01*
X199635000Y-103085750D01*
X199476250Y-102927000D01*
X199359360Y-102927000D01*
X199251890Y-102853569D01*
X199000000Y-102802560D01*
X197500000Y-102802560D01*
X197264683Y-102846838D01*
X197140108Y-102927000D01*
X197023750Y-102927000D01*
X196865000Y-103085750D01*
X196865000Y-103276309D01*
X196880269Y-103313171D01*
X196852560Y-103450000D01*
X181505000Y-103450000D01*
X181505000Y-102820750D01*
X181346250Y-102662000D01*
X179972000Y-102662000D01*
X179718000Y-102662000D01*
X178343750Y-102662000D01*
X178185000Y-102820750D01*
X178185000Y-104171269D01*
X178040354Y-103821200D01*
X177735405Y-103515718D01*
X177336767Y-103350189D01*
X176905127Y-103349812D01*
X176506200Y-103514646D01*
X176200718Y-103819595D01*
X176035189Y-104218233D01*
X176034812Y-104649873D01*
X176181243Y-105004261D01*
X176114493Y-105016821D01*
X175970000Y-104987560D01*
X175470000Y-104987560D01*
X175314493Y-105016821D01*
X175170000Y-104987560D01*
X174670000Y-104987560D01*
X174514493Y-105016821D01*
X174370000Y-104987560D01*
X173870000Y-104987560D01*
X173729914Y-105013919D01*
X173696310Y-105000000D01*
X173660212Y-105000000D01*
X173804811Y-104651767D01*
X173805188Y-104220127D01*
X173640354Y-103821200D01*
X173335405Y-103515718D01*
X172936767Y-103350189D01*
X172505127Y-103349812D01*
X172106200Y-103514646D01*
X171800718Y-103819595D01*
X171655000Y-104170523D01*
X171655000Y-102820750D01*
X171496250Y-102662000D01*
X170122000Y-102662000D01*
X169868000Y-102662000D01*
X168493750Y-102662000D01*
X168335000Y-102820750D01*
X167710000Y-102820750D01*
X167710000Y-102069931D01*
X167821046Y-101511662D01*
X168097669Y-101097667D01*
X168335000Y-100939087D01*
X168335000Y-102249250D01*
X168493750Y-102408000D01*
X169868000Y-102408000D01*
X169868000Y-102388000D01*
X170122000Y-102388000D01*
X170122000Y-102408000D01*
X171496250Y-102408000D01*
X171655000Y-102249250D01*
X171655000Y-100710000D01*
X178185000Y-100710000D01*
X178185000Y-102249250D01*
G36*
X192311703Y-132811311D02*
X192341824Y-132981856D01*
X192773055Y-133126091D01*
X193226657Y-133094322D01*
X193498176Y-132981856D01*
X193511236Y-132907909D01*
X193541697Y-132938423D01*
X193961646Y-133112801D01*
X194416359Y-133113198D01*
X194483049Y-133085642D01*
X194382367Y-133236325D01*
X194330913Y-133495000D01*
X192571579Y-133495000D01*
X192108151Y-133031572D01*
X192228176Y-132981856D01*
X192258297Y-132811311D01*
X192285000Y-132784608D01*
X192311703Y-132811311D01*
X192311703Y-132811311D01*
G37*
X192311703Y-132811311D02*
X192341824Y-132981856D01*
X192773055Y-133126091D01*
X193226657Y-133094322D01*
X193498176Y-132981856D01*
X193511236Y-132907909D01*
X193541697Y-132938423D01*
X193961646Y-133112801D01*
X194416359Y-133113198D01*
X194483049Y-133085642D01*
X194382367Y-133236325D01*
X194330913Y-133495000D01*
X192571579Y-133495000D01*
X192108151Y-133031572D01*
X192228176Y-132981856D01*
X192258297Y-132811311D01*
X192285000Y-132784608D01*
X192311703Y-132811311D01*
G36*
X204627000Y-132773000D02*
X204647000Y-132773000D01*
X204647000Y-133015000D01*
X204353000Y-133015000D01*
X204353000Y-132773000D01*
X204373000Y-132773000D01*
X204373000Y-132753000D01*
X204627000Y-132753000D01*
X204627000Y-132773000D01*
X204627000Y-132773000D01*
G37*
X204627000Y-132773000D02*
X204647000Y-132773000D01*
X204647000Y-133015000D01*
X204353000Y-133015000D01*
X204353000Y-132773000D01*
X204373000Y-132773000D01*
X204373000Y-132753000D01*
X204627000Y-132753000D01*
X204627000Y-132773000D01*
G36*
X215026539Y-120264436D02*
X214815241Y-120773298D01*
X214814760Y-121324285D01*
X215025169Y-121833515D01*
X215241313Y-122050036D01*
X215026539Y-122264436D01*
X214815241Y-122773298D01*
X214814760Y-123324285D01*
X215025169Y-123833515D01*
X215414436Y-124223461D01*
X215651506Y-124321901D01*
X216200000Y-124870395D01*
X216748428Y-124321967D01*
X216983515Y-124224831D01*
X217373461Y-123835564D01*
X217584759Y-123326702D01*
X217585240Y-122775715D01*
X217374831Y-122266485D01*
X217158687Y-122049964D01*
X217373461Y-121835564D01*
X217584759Y-121326702D01*
X217585240Y-120775715D01*
X217374831Y-120266485D01*
X217293488Y-120185000D01*
X219329868Y-120185000D01*
X221265000Y-122120132D01*
X221265000Y-130229868D01*
X220229868Y-131265000D01*
X218000000Y-131265000D01*
X217565654Y-131351397D01*
X217388975Y-131469450D01*
X217171517Y-131408088D01*
X216379605Y-132200000D01*
X216393748Y-132214143D01*
X216214143Y-132393748D01*
X216200000Y-132379605D01*
X216185858Y-132393748D01*
X216006253Y-132214143D01*
X216020395Y-132200000D01*
X216006253Y-132185858D01*
X216185858Y-132006253D01*
X216200000Y-132020395D01*
X216748428Y-131471967D01*
X216983515Y-131374831D01*
X217373461Y-130985564D01*
X217584759Y-130476702D01*
X217585240Y-129925715D01*
X217398828Y-129474561D01*
X217627875Y-129704009D01*
X218063255Y-129884794D01*
X218534677Y-129885206D01*
X218970372Y-129705180D01*
X219304009Y-129372125D01*
X219484794Y-128936745D01*
X219485206Y-128465323D01*
X219305180Y-128029628D01*
X218972125Y-127695991D01*
X218801277Y-127625049D01*
X218970372Y-127555180D01*
X219304009Y-127222125D01*
X219484794Y-126786745D01*
X219485206Y-126315323D01*
X219305180Y-125879628D01*
X218972125Y-125545991D01*
X218536745Y-125365206D01*
X218065323Y-125364794D01*
X217629628Y-125544820D01*
X217419257Y-125754824D01*
X217597201Y-125254829D01*
X217569230Y-124704552D01*
X217412460Y-124326077D01*
X217171517Y-124258088D01*
X216379605Y-125050000D01*
X217171517Y-125841912D01*
X217395264Y-125778775D01*
X217295991Y-125877875D01*
X217115206Y-126313255D01*
X217114794Y-126784677D01*
X217294820Y-127220372D01*
X217627875Y-127554009D01*
X217798723Y-127624951D01*
X217629628Y-127694820D01*
X217295991Y-128027875D01*
X217115206Y-128463255D01*
X217114794Y-128934677D01*
X217270823Y-129312296D01*
X216985564Y-129026539D01*
X216476702Y-128815241D01*
X215925715Y-128814760D01*
X215416485Y-129025169D01*
X215376585Y-129065000D01*
X214200000Y-129065000D01*
X213765654Y-129151397D01*
X213595635Y-129265000D01*
X212600000Y-129265000D01*
X212385000Y-129307766D01*
X212385000Y-129273690D01*
X212358766Y-129210355D01*
X212435000Y-129026309D01*
X212435000Y-128635750D01*
X212276250Y-128477000D01*
X211627000Y-128477000D01*
X211627000Y-128497000D01*
X211373000Y-128497000D01*
X211373000Y-128477000D01*
X210723750Y-128477000D01*
X210565000Y-128635750D01*
X210565000Y-128886975D01*
X210548340Y-128903634D01*
X210546903Y-128902652D01*
X210547440Y-128900000D01*
X210547440Y-127800000D01*
X210523674Y-127673691D01*
X210565000Y-127673691D01*
X210565000Y-128064250D01*
X210723750Y-128223000D01*
X211373000Y-128223000D01*
X211373000Y-127323750D01*
X211627000Y-127323750D01*
X211627000Y-128223000D01*
X212276250Y-128223000D01*
X212435000Y-128064250D01*
X212435000Y-127673691D01*
X212338327Y-127440302D01*
X212159699Y-127261673D01*
X211926310Y-127165000D01*
X211785750Y-127165000D01*
X211627000Y-127323750D01*
X211373000Y-127323750D01*
X211214250Y-127165000D01*
X211073690Y-127165000D01*
X210840301Y-127261673D01*
X210661673Y-127440302D01*
X210565000Y-127673691D01*
X210523674Y-127673691D01*
X210503162Y-127564683D01*
X210364090Y-127348559D01*
X210151890Y-127203569D01*
X209900000Y-127152560D01*
X209300000Y-127152560D01*
X209122440Y-127185970D01*
X209122440Y-126995000D01*
X209106103Y-126908175D01*
X209300000Y-126947440D01*
X209900000Y-126947440D01*
X210074468Y-126914612D01*
X210123690Y-126935000D01*
X210264250Y-126935000D01*
X210423000Y-126776250D01*
X210423000Y-126659360D01*
X210496431Y-126551890D01*
X210547440Y-126300000D01*
X210547440Y-125603000D01*
X210552560Y-125603000D01*
X210552560Y-126300000D01*
X210596838Y-126535317D01*
X210677000Y-126659892D01*
X210677000Y-126776250D01*
X210835750Y-126935000D01*
X210976310Y-126935000D01*
X211029589Y-126912931D01*
X211200000Y-126947440D01*
X211800000Y-126947440D01*
X212035317Y-126903162D01*
X212251441Y-126764090D01*
X212396431Y-126551890D01*
X212447440Y-126300000D01*
X212447440Y-126021517D01*
X215408088Y-126021517D01*
X215476077Y-126262460D01*
X215995171Y-126447201D01*
X216545448Y-126419230D01*
X216923923Y-126262460D01*
X216991912Y-126021517D01*
X216200000Y-125229605D01*
X215408088Y-126021517D01*
X212447440Y-126021517D01*
X212447440Y-125200000D01*
X212403162Y-124964683D01*
X212328134Y-124848087D01*
X212343631Y-124845171D01*
X214802799Y-124845171D01*
X214830770Y-125395448D01*
X214987540Y-125773923D01*
X215228483Y-125841912D01*
X216020395Y-125050000D01*
X215228483Y-124258088D01*
X214987540Y-124326077D01*
X214802799Y-124845171D01*
X212343631Y-124845171D01*
X212540317Y-124808162D01*
X212756441Y-124669090D01*
X212901431Y-124456890D01*
X212952440Y-124205000D01*
X212952440Y-123495000D01*
X213339995Y-123495000D01*
X213340000Y-123495001D01*
X213668821Y-123429593D01*
X213678675Y-123427633D01*
X213965790Y-123235790D01*
X213965791Y-123235789D01*
X214425787Y-122775792D01*
X214425790Y-122775790D01*
X214617633Y-122488675D01*
X214632288Y-122415000D01*
X214685001Y-122150000D01*
X214685000Y-122149995D01*
X214685000Y-120185000D01*
X215106114Y-120185000D01*
X215026539Y-120264436D01*
X215026539Y-120264436D01*
G37*
X215026539Y-120264436D02*
X214815241Y-120773298D01*
X214814760Y-121324285D01*
X215025169Y-121833515D01*
X215241313Y-122050036D01*
X215026539Y-122264436D01*
X214815241Y-122773298D01*
X214814760Y-123324285D01*
X215025169Y-123833515D01*
X215414436Y-124223461D01*
X215651506Y-124321901D01*
X216200000Y-124870395D01*
X216748428Y-124321967D01*
X216983515Y-124224831D01*
X217373461Y-123835564D01*
X217584759Y-123326702D01*
X217585240Y-122775715D01*
X217374831Y-122266485D01*
X217158687Y-122049964D01*
X217373461Y-121835564D01*
X217584759Y-121326702D01*
X217585240Y-120775715D01*
X217374831Y-120266485D01*
X217293488Y-120185000D01*
X219329868Y-120185000D01*
X221265000Y-122120132D01*
X221265000Y-130229868D01*
X220229868Y-131265000D01*
X218000000Y-131265000D01*
X217565654Y-131351397D01*
X217388975Y-131469450D01*
X217171517Y-131408088D01*
X216379605Y-132200000D01*
X216393748Y-132214143D01*
X216214143Y-132393748D01*
X216200000Y-132379605D01*
X216185858Y-132393748D01*
X216006253Y-132214143D01*
X216020395Y-132200000D01*
X216006253Y-132185858D01*
X216185858Y-132006253D01*
X216200000Y-132020395D01*
X216748428Y-131471967D01*
X216983515Y-131374831D01*
X217373461Y-130985564D01*
X217584759Y-130476702D01*
X217585240Y-129925715D01*
X217398828Y-129474561D01*
X217627875Y-129704009D01*
X218063255Y-129884794D01*
X218534677Y-129885206D01*
X218970372Y-129705180D01*
X219304009Y-129372125D01*
X219484794Y-128936745D01*
X219485206Y-128465323D01*
X219305180Y-128029628D01*
X218972125Y-127695991D01*
X218801277Y-127625049D01*
X218970372Y-127555180D01*
X219304009Y-127222125D01*
X219484794Y-126786745D01*
X219485206Y-126315323D01*
X219305180Y-125879628D01*
X218972125Y-125545991D01*
X218536745Y-125365206D01*
X218065323Y-125364794D01*
X217629628Y-125544820D01*
X217419257Y-125754824D01*
X217597201Y-125254829D01*
X217569230Y-124704552D01*
X217412460Y-124326077D01*
X217171517Y-124258088D01*
X216379605Y-125050000D01*
X217171517Y-125841912D01*
X217395264Y-125778775D01*
X217295991Y-125877875D01*
X217115206Y-126313255D01*
X217114794Y-126784677D01*
X217294820Y-127220372D01*
X217627875Y-127554009D01*
X217798723Y-127624951D01*
X217629628Y-127694820D01*
X217295991Y-128027875D01*
X217115206Y-128463255D01*
X217114794Y-128934677D01*
X217270823Y-129312296D01*
X216985564Y-129026539D01*
X216476702Y-128815241D01*
X215925715Y-128814760D01*
X215416485Y-129025169D01*
X215376585Y-129065000D01*
X214200000Y-129065000D01*
X213765654Y-129151397D01*
X213595635Y-129265000D01*
X212600000Y-129265000D01*
X212385000Y-129307766D01*
X212385000Y-129273690D01*
X212358766Y-129210355D01*
X212435000Y-129026309D01*
X212435000Y-128635750D01*
X212276250Y-128477000D01*
X211627000Y-128477000D01*
X211627000Y-128497000D01*
X211373000Y-128497000D01*
X211373000Y-128477000D01*
X210723750Y-128477000D01*
X210565000Y-128635750D01*
X210565000Y-128886975D01*
X210548340Y-128903634D01*
X210546903Y-128902652D01*
X210547440Y-128900000D01*
X210547440Y-127800000D01*
X210523674Y-127673691D01*
X210565000Y-127673691D01*
X210565000Y-128064250D01*
X210723750Y-128223000D01*
X211373000Y-128223000D01*
X211373000Y-127323750D01*
X211627000Y-127323750D01*
X211627000Y-128223000D01*
X212276250Y-128223000D01*
X212435000Y-128064250D01*
X212435000Y-127673691D01*
X212338327Y-127440302D01*
X212159699Y-127261673D01*
X211926310Y-127165000D01*
X211785750Y-127165000D01*
X211627000Y-127323750D01*
X211373000Y-127323750D01*
X211214250Y-127165000D01*
X211073690Y-127165000D01*
X210840301Y-127261673D01*
X210661673Y-127440302D01*
X210565000Y-127673691D01*
X210523674Y-127673691D01*
X210503162Y-127564683D01*
X210364090Y-127348559D01*
X210151890Y-127203569D01*
X209900000Y-127152560D01*
X209300000Y-127152560D01*
X209122440Y-127185970D01*
X209122440Y-126995000D01*
X209106103Y-126908175D01*
X209300000Y-126947440D01*
X209900000Y-126947440D01*
X210074468Y-126914612D01*
X210123690Y-126935000D01*
X210264250Y-126935000D01*
X210423000Y-126776250D01*
X210423000Y-126659360D01*
X210496431Y-126551890D01*
X210547440Y-126300000D01*
X210547440Y-125603000D01*
X210552560Y-125603000D01*
X210552560Y-126300000D01*
X210596838Y-126535317D01*
X210677000Y-126659892D01*
X210677000Y-126776250D01*
X210835750Y-126935000D01*
X210976310Y-126935000D01*
X211029589Y-126912931D01*
X211200000Y-126947440D01*
X211800000Y-126947440D01*
X212035317Y-126903162D01*
X212251441Y-126764090D01*
X212396431Y-126551890D01*
X212447440Y-126300000D01*
X212447440Y-126021517D01*
X215408088Y-126021517D01*
X215476077Y-126262460D01*
X215995171Y-126447201D01*
X216545448Y-126419230D01*
X216923923Y-126262460D01*
X216991912Y-126021517D01*
X216200000Y-125229605D01*
X215408088Y-126021517D01*
X212447440Y-126021517D01*
X212447440Y-125200000D01*
X212403162Y-124964683D01*
X212328134Y-124848087D01*
X212343631Y-124845171D01*
X214802799Y-124845171D01*
X214830770Y-125395448D01*
X214987540Y-125773923D01*
X215228483Y-125841912D01*
X216020395Y-125050000D01*
X215228483Y-124258088D01*
X214987540Y-124326077D01*
X214802799Y-124845171D01*
X212343631Y-124845171D01*
X212540317Y-124808162D01*
X212756441Y-124669090D01*
X212901431Y-124456890D01*
X212952440Y-124205000D01*
X212952440Y-123495000D01*
X213339995Y-123495000D01*
X213340000Y-123495001D01*
X213668821Y-123429593D01*
X213678675Y-123427633D01*
X213965790Y-123235790D01*
X213965791Y-123235789D01*
X214425787Y-122775792D01*
X214425790Y-122775790D01*
X214617633Y-122488675D01*
X214632288Y-122415000D01*
X214685001Y-122150000D01*
X214685000Y-122149995D01*
X214685000Y-120185000D01*
X215106114Y-120185000D01*
X215026539Y-120264436D01*
G36*
X193000961Y-131843071D02*
X193047070Y-131889180D01*
X193046929Y-132050961D01*
X192934143Y-132163748D01*
X192920000Y-132149605D01*
X192905858Y-132163748D01*
X192802102Y-132059992D01*
X192790322Y-131891788D01*
X192839180Y-131842930D01*
X193000961Y-131843071D01*
X193000961Y-131843071D01*
G37*
X193000961Y-131843071D02*
X193047070Y-131889180D01*
X193046929Y-132050961D01*
X192934143Y-132163748D01*
X192920000Y-132149605D01*
X192905858Y-132163748D01*
X192802102Y-132059992D01*
X192790322Y-131891788D01*
X192839180Y-131842930D01*
X193000961Y-131843071D01*
G36*
X191730961Y-131843071D02*
X191767898Y-131880008D01*
X191779678Y-132048212D01*
X191664143Y-132163748D01*
X191650000Y-132149605D01*
X191635858Y-132163748D01*
X191522930Y-132050820D01*
X191523071Y-131889039D01*
X191569180Y-131842930D01*
X191730961Y-131843071D01*
X191730961Y-131843071D01*
G37*
X191730961Y-131843071D02*
X191767898Y-131880008D01*
X191779678Y-132048212D01*
X191664143Y-132163748D01*
X191650000Y-132149605D01*
X191635858Y-132163748D01*
X191522930Y-132050820D01*
X191523071Y-131889039D01*
X191569180Y-131842930D01*
X191730961Y-131843071D01*
G36*
X195540961Y-131843071D02*
X195653748Y-131955858D01*
X195639605Y-131970000D01*
X195653748Y-131984143D01*
X195474143Y-132163748D01*
X195460000Y-132149605D01*
X195445858Y-132163748D01*
X195332930Y-132050820D01*
X195333071Y-131889039D01*
X195379180Y-131842930D01*
X195540961Y-131843071D01*
X195540961Y-131843071D01*
G37*
X195540961Y-131843071D02*
X195653748Y-131955858D01*
X195639605Y-131970000D01*
X195653748Y-131984143D01*
X195474143Y-132163748D01*
X195460000Y-132149605D01*
X195445858Y-132163748D01*
X195332930Y-132050820D01*
X195333071Y-131889039D01*
X195379180Y-131842930D01*
X195540961Y-131843071D01*
G36*
X214127000Y-131873000D02*
X214147000Y-131873000D01*
X214147000Y-132127000D01*
X214127000Y-132127000D01*
X214127000Y-132147000D01*
X213873000Y-132147000D01*
X213873000Y-132127000D01*
X213853000Y-132127000D01*
X213853000Y-131873000D01*
X213873000Y-131873000D01*
X213873000Y-131853000D01*
X214127000Y-131853000D01*
X214127000Y-131873000D01*
X214127000Y-131873000D01*
G37*
X214127000Y-131873000D02*
X214147000Y-131873000D01*
X214147000Y-132127000D01*
X214127000Y-132127000D01*
X214127000Y-132147000D01*
X213873000Y-132147000D01*
X213873000Y-132127000D01*
X213853000Y-132127000D01*
X213853000Y-131873000D01*
X213873000Y-131873000D01*
X213873000Y-131853000D01*
X214127000Y-131853000D01*
X214127000Y-131873000D01*
G36*
X211477000Y-129673000D02*
X211497000Y-129673000D01*
X211497000Y-129897868D01*
X211479868Y-129915000D01*
X211203000Y-129915000D01*
X211203000Y-129673000D01*
X211223000Y-129673000D01*
X211223000Y-129653000D01*
X211477000Y-129653000D01*
X211477000Y-129673000D01*
X211477000Y-129673000D01*
G37*
X211477000Y-129673000D02*
X211497000Y-129673000D01*
X211497000Y-129897868D01*
X211479868Y-129915000D01*
X211203000Y-129915000D01*
X211203000Y-129673000D01*
X211223000Y-129673000D01*
X211223000Y-129653000D01*
X211477000Y-129653000D01*
X211477000Y-129673000D01*
G36*
X205558750Y-126108000D02*
X206383000Y-126108000D01*
X206383000Y-126088000D01*
X206637000Y-126088000D01*
X206637000Y-126108000D01*
X206657000Y-126108000D01*
X206657000Y-126362000D01*
X206637000Y-126362000D01*
X206637000Y-127061250D01*
X206795750Y-127220000D01*
X206877560Y-127220000D01*
X206877560Y-127538563D01*
X206824210Y-127574210D01*
X206632367Y-127861325D01*
X206627595Y-127885317D01*
X206588980Y-128079440D01*
X205897440Y-128770980D01*
X205897440Y-128010000D01*
X205853162Y-127774683D01*
X205714090Y-127558559D01*
X205501890Y-127413569D01*
X205250000Y-127362560D01*
X203550000Y-127362560D01*
X203497440Y-127372450D01*
X203497440Y-126850000D01*
X203453162Y-126614683D01*
X203392718Y-126520750D01*
X205400000Y-126520750D01*
X205400000Y-126711309D01*
X205496673Y-126944698D01*
X205675301Y-127123327D01*
X205908690Y-127220000D01*
X206224250Y-127220000D01*
X206383000Y-127061250D01*
X206383000Y-126362000D01*
X205558750Y-126362000D01*
X205400000Y-126520750D01*
X203392718Y-126520750D01*
X203380113Y-126501162D01*
X203510407Y-126475245D01*
X203765079Y-126305079D01*
X204012718Y-126057440D01*
X205250000Y-126057440D01*
X205467302Y-126016552D01*
X205558750Y-126108000D01*
X205558750Y-126108000D01*
G37*
X205558750Y-126108000D02*
X206383000Y-126108000D01*
X206383000Y-126088000D01*
X206637000Y-126088000D01*
X206637000Y-126108000D01*
X206657000Y-126108000D01*
X206657000Y-126362000D01*
X206637000Y-126362000D01*
X206637000Y-127061250D01*
X206795750Y-127220000D01*
X206877560Y-127220000D01*
X206877560Y-127538563D01*
X206824210Y-127574210D01*
X206632367Y-127861325D01*
X206627595Y-127885317D01*
X206588980Y-128079440D01*
X205897440Y-128770980D01*
X205897440Y-128010000D01*
X205853162Y-127774683D01*
X205714090Y-127558559D01*
X205501890Y-127413569D01*
X205250000Y-127362560D01*
X203550000Y-127362560D01*
X203497440Y-127372450D01*
X203497440Y-126850000D01*
X203453162Y-126614683D01*
X203392718Y-126520750D01*
X205400000Y-126520750D01*
X205400000Y-126711309D01*
X205496673Y-126944698D01*
X205675301Y-127123327D01*
X205908690Y-127220000D01*
X206224250Y-127220000D01*
X206383000Y-127061250D01*
X206383000Y-126362000D01*
X205558750Y-126362000D01*
X205400000Y-126520750D01*
X203392718Y-126520750D01*
X203380113Y-126501162D01*
X203510407Y-126475245D01*
X203765079Y-126305079D01*
X204012718Y-126057440D01*
X205250000Y-126057440D01*
X205467302Y-126016552D01*
X205558750Y-126108000D01*
G36*
X201699385Y-128178975D02*
X201789071Y-128313201D01*
X201815370Y-128352560D01*
X201750000Y-128352560D01*
X201543509Y-128391414D01*
X201525245Y-128299594D01*
X201485322Y-128239845D01*
X201609698Y-128188327D01*
X201651660Y-128146366D01*
X201699385Y-128178975D01*
X201699385Y-128178975D01*
G37*
X201699385Y-128178975D02*
X201789071Y-128313201D01*
X201815370Y-128352560D01*
X201750000Y-128352560D01*
X201543509Y-128391414D01*
X201525245Y-128299594D01*
X201485322Y-128239845D01*
X201609698Y-128188327D01*
X201651660Y-128146366D01*
X201699385Y-128178975D01*
G36*
X200997000Y-127377000D02*
X200977000Y-127377000D01*
X200977000Y-127397000D01*
X200723000Y-127397000D01*
X200723000Y-127377000D01*
X200703000Y-127377000D01*
X200703000Y-127135000D01*
X200997000Y-127135000D01*
X200997000Y-127377000D01*
X200997000Y-127377000D01*
G37*
X200997000Y-127377000D02*
X200977000Y-127377000D01*
X200977000Y-127397000D01*
X200723000Y-127397000D01*
X200723000Y-127377000D01*
X200703000Y-127377000D01*
X200703000Y-127135000D01*
X200997000Y-127135000D01*
X200997000Y-127377000D01*
G36*
X209551838Y-124440317D02*
X209624064Y-124552560D01*
X209300000Y-124552560D01*
X209064683Y-124596838D01*
X208848559Y-124735910D01*
X208772511Y-124847210D01*
X208725245Y-124609591D01*
X208555079Y-124354919D01*
X208535160Y-124335000D01*
X209532021Y-124335000D01*
X209551838Y-124440317D01*
X209551838Y-124440317D01*
G37*
X209551838Y-124440317D02*
X209624064Y-124552560D01*
X209300000Y-124552560D01*
X209064683Y-124596838D01*
X208848559Y-124735910D01*
X208772511Y-124847210D01*
X208725245Y-124609591D01*
X208555079Y-124354919D01*
X208535160Y-124335000D01*
X209532021Y-124335000D01*
X209551838Y-124440317D01*
G36*
X203127000Y-122373000D02*
X204373000Y-122373000D01*
X204373000Y-122353000D01*
X204627000Y-122353000D01*
X204627000Y-122373000D01*
X204647000Y-122373000D01*
X204647000Y-122627000D01*
X204627000Y-122627000D01*
X204627000Y-122647000D01*
X204373000Y-122647000D01*
X204373000Y-122627000D01*
X203127000Y-122627000D01*
X203127000Y-122647000D01*
X202873000Y-122647000D01*
X202873000Y-122627000D01*
X202853000Y-122627000D01*
X202853000Y-122373000D01*
X202873000Y-122373000D01*
X202873000Y-122353000D01*
X203127000Y-122353000D01*
X203127000Y-122373000D01*
X203127000Y-122373000D01*
G37*
X203127000Y-122373000D02*
X204373000Y-122373000D01*
X204373000Y-122353000D01*
X204627000Y-122353000D01*
X204627000Y-122373000D01*
X204647000Y-122373000D01*
X204647000Y-122627000D01*
X204627000Y-122627000D01*
X204627000Y-122647000D01*
X204373000Y-122647000D01*
X204373000Y-122627000D01*
X203127000Y-122627000D01*
X203127000Y-122647000D01*
X202873000Y-122647000D01*
X202873000Y-122627000D01*
X202853000Y-122627000D01*
X202853000Y-122373000D01*
X202873000Y-122373000D01*
X202873000Y-122353000D01*
X203127000Y-122353000D01*
X203127000Y-122373000D01*
M02*
